<svg width="42" height="42" viewBox="0 0 42 42" fill="none" xmlns="http://www.w3.org/2000/svg">
<path d="M21 0C9.40193 0 0 9.40193 0 21C0 32.5981 9.40193 42 21 42C32.5981 42 42 32.5981 42 21C42 9.40193 32.5981 0 21 0Z" fill="#40B3E0"/>
<path d="M31.218 12.0793L27.467 30.9906C27.467 30.9906 26.9425 32.3021 25.4999 31.6726L16.8443 25.0366L13.697 23.5155L8.39872 21.7318C8.39872 21.7318 7.58562 21.4433 7.50687 20.8138C7.42812 20.1843 8.42497 19.8434 8.42497 19.8434L29.4867 11.5812C29.4867 11.5812 31.2178 10.8206 31.2178 12.0796" fill="white"/>
<path d="M16.1795 30.7778C16.1795 30.7778 15.9269 30.7542 15.6119 29.7573C15.2974 28.7606 13.6973 23.5149 13.6973 23.5149L26.4183 15.4365C26.4183 15.4365 27.1529 14.9905 27.1266 15.4365C27.1266 15.4365 27.2577 15.5152 26.8641 15.8824C26.4708 16.2497 16.8711 24.8789 16.8711 24.8789" fill="#D2E5F1"/>
<path d="M20.1631 27.5812L16.7396 30.7026C16.7396 30.7026 16.4719 30.9057 16.1792 30.7784L16.8348 24.9805" fill="#B5CFE4"/>
</svg>
