<svg width="226" height="60" viewBox="0 0 226 60" fill="none" xmlns="http://www.w3.org/2000/svg">
<rect width="226" height="60" fill="#005DED"/>
<path d="M153.003 15.3607C152.292 15.4793 150.526 16.3392 150.156 18.5038C151.551 16.5468 151.807 16.4578 152.548 16.102C154.684 15.0049 158.442 17.1695 160.236 17.1398C160.265 17.0508 160.293 17.0212 160.293 16.9322C157.73 16.3689 155.908 14.8863 153.003 15.3607ZM152.946 16.695C151.551 17.1991 150.184 18.8003 151.01 20.2236C151.893 21.7358 154 20.8759 154.769 20.0456C155.566 19.2154 155.936 17.3177 158.328 17.8811C158.499 17.7625 158.727 18.0886 158.812 17.7625C157.446 16.6654 154.911 16.3096 152.946 16.695ZM173.734 17.3474C173.449 16.784 173.136 16.2206 172.823 15.6572C172.509 15.1532 172.196 14.6491 171.854 14.145C166.814 6.64329 158.471 1.72119 149.045 1.72119C133.725 1.72119 121.253 14.7084 121.253 30.6608C121.253 46.6131 133.725 59.6003 149.045 59.6003C158.471 59.6003 166.814 54.6782 171.854 47.1765C172.196 46.6723 172.509 46.1683 172.823 45.6641C173.136 45.1305 173.449 44.5671 173.734 43.974C175.727 39.9713 176.866 35.4641 176.866 30.6608C176.866 25.8572 175.727 21.3503 173.734 17.3474ZM149.045 30.5124V25.3828C149.188 25.3236 149.786 26.7765 149.814 26.9841C150.554 31.1055 149.985 32.1433 149.045 32.1729V30.5124ZM148.419 55.9236C135.32 55.5677 124.841 44.3595 124.841 30.6608C124.812 16.784 135.32 5.99096 148.447 5.42758V7.0584C148.447 7.0584 140.901 7.14735 135.035 12.3363C134.864 12.6032 135.035 12.7514 135.405 12.5439C135.804 12.3363 140.93 8.71886 145.998 9.87527C147.422 10.6758 148.447 12.9886 148.447 14.1747V16.5468C146.682 14.3229 142.439 12.6625 139.79 13.2258C139.022 13.4038 139.392 13.7299 139.534 13.7892C141.784 13.7596 148.049 16.191 148.447 19.6009V34.7822C150.213 34.8713 150.896 34.3374 151.266 33.9519C151.864 33.3591 152.491 31.8765 152.292 30.4828L151.636 30.72H151.608C151.352 32.8549 150.754 33.5666 149.045 34.1003V33.2108C150.241 33.0921 150.782 31.995 150.668 29.6229C150.554 27.3398 149.928 25.5311 149.017 23.6334V21.8841C149.9 23.6927 150.668 27.1916 151.266 27.7845C151.722 27.6066 150.583 24.4933 150.184 23.3072C150.611 22.7736 151.38 24.5229 151.836 25.4421C152.662 27.5769 154.684 34.7526 151.409 35.8792C148.447 36.6799 146.226 36.324 145.343 34.9601C143.948 32.5584 146.824 29.5933 145.913 28.4368L145.144 21.0242C144.574 15.8351 137.683 14.0561 134.95 17.377C134.494 18.1183 135.12 17.8811 135.462 17.5846C137.655 16.102 142.496 15.8055 143.863 20.1345C144.176 20.9944 144.147 22.8032 143.208 20.4608C141.528 17.7328 139.079 16.4875 136.174 18.652C135.69 18.9782 133.896 20.6091 133.298 19.7194C132.216 18.2665 134.665 16.2206 134.579 15.3311L134.209 15.5683C132.472 17.0805 131.305 20.7572 132.415 23.6334C132.586 24.3746 133.383 25.0566 131.846 25.4124C128.571 26.6578 128.058 30.0677 128.058 31.4614C128.058 37.0061 132.558 43.3515 138.281 40.3566C139.477 39.5858 140.104 38.6963 140.531 38.1328L140.218 37.866C131.305 47.5618 125.695 28.6444 133.127 27.4584C133.981 28.4963 135.234 29.7416 136.544 30.0677C139.136 30.6904 141.556 29.5637 144.318 25.5015C144.745 25.0566 144.859 25.4717 144.774 25.7091C144.489 27.2509 142.894 29.4154 142.61 30.0381C142.439 30.3939 142.581 30.8387 143.065 30.4236C143.692 29.5341 143.863 28.941 144.404 28.8223L143.179 31.5503C142.724 32.2916 142.353 32.7066 143.549 32.5584C144.688 32.5584 144.176 33.1515 144.347 34.041C145.4 35.6421 142.894 36.8282 142.667 34.545C142.667 33.7444 143.321 33.1811 142.866 33.0328C142.41 33.1811 141.812 34.3374 141.784 35.6421L140.645 37.4213L140.901 37.7177L142.182 35.8496C142.752 37.1841 144.859 36.4427 144.973 36.4131C145.429 36.4427 145.685 36.5614 145.941 36.8874C145.97 37.3916 146.255 37.5398 146.369 38.1921C147.052 38.9334 146.084 39.2299 145.486 39.4671C143.151 40.3864 143.008 41.8391 142.069 43.0253C141.442 43.8259 141.186 43.5591 140.616 44.1519C140.189 44.9229 141.186 45.249 141.385 45.6345C141.67 46.2276 142.239 47.0578 143.065 47.4137C143.606 47.5914 143.92 47.7397 143.094 48.2141C142.496 48.6292 142.239 49.6967 142.239 50.0526C142.239 50.9717 142.439 52.1578 143.578 52.9288C142.894 52.7509 142.467 52.6026 141.812 52.3061C142.41 51.5351 141.869 51.2979 141.755 51.0904C141.499 51.1496 141.471 52.1578 140.246 51.7131C140.645 50.9717 143.151 47.9769 141.926 47.5322C140.93 49.2519 140.559 51.2387 138.424 50.8532C139.363 50.1118 140.816 49.3114 141.499 47.0282L141.157 46.9095C140.332 48.6591 138.68 50.7641 136.715 49.7561C137.569 49.341 138.139 48.9555 138.594 48.57C138.993 48.2141 140.873 46.5538 140.189 46.1979C139.079 47.3543 136.63 50.0526 135.149 48.4811C136.003 48.2439 136.914 47.8584 137.626 47.3841C138.31 46.9095 139.278 45.9311 139.819 45.6049L139.591 45.1305C139.05 45.249 136.573 47.3543 136.032 47.4729C135.263 47.6805 134.636 48.2439 133.526 46.9986C134.921 46.8503 136.231 46.4351 136.858 46.02C137.37 45.6939 139.193 44.7746 139.42 44.745L139.164 44.2706C137.883 44.7154 136.858 46.2868 134.067 46.2868C133.867 46.2868 132.785 46.2276 131.874 45.1009L131.903 45.0414C133.611 45.3084 135.007 45.2788 136.658 44.7746C137.455 44.4782 138.196 43.974 138.993 43.7368L138.737 43.1141C137.228 43.7963 136.117 44.5374 134.266 44.5374C132.187 44.5374 131.846 44.8637 130.593 43.1439C130.821 42.8769 132.358 43.6479 133.383 43.6479C135.662 43.6479 136.715 43.5887 138.623 42.6694L138.395 42.195C137.74 42.4916 136.231 42.966 134.864 42.9956C131.732 43.0253 129.34 41.5723 129.169 40.2084C130.052 40.9793 131.39 41.9578 132.899 42.1061C134.067 42.2246 137.199 42.1061 138.31 41.6614L138.11 41.2166C137.512 41.4538 135.007 41.691 134.266 41.691C132.671 41.691 130.906 40.5049 130.45 40.149C127.29 37.5101 126.378 29.5637 128.172 27.0137C128.543 25.7387 130.792 23.7816 130.764 23.3963C130.393 19.6305 130.194 18.2962 132.956 14.3229C130.593 15.8351 128.856 19.1858 129.938 22.3881C130.422 23.8114 128.372 25.0566 127.774 26.0648C125.097 30.6608 126.321 35.5532 128.201 40.1788C134.779 54.7374 148.39 54.2927 148.39 54.2927L148.419 55.9236ZM149.045 9.72701V8.98573C149.843 9.07468 150.497 9.28224 151.238 9.46014C152.092 8.57061 149.415 8.54096 149.045 8.27409V7.74038C150.953 7.65142 152.861 7.94794 154.712 8.48166L154.655 8.65956C153.089 8.77817 151.665 9.87527 150.44 11.2096C150.327 11.3282 150.184 11.7729 149.757 11.7729C149.33 11.7433 149.159 11.595 149.017 11.2096V10.2607C149.444 10.2607 150.27 10.8241 150.355 10.1718C149.757 9.84561 149.558 9.99386 149.045 9.72701ZM168.694 22.4473C168.893 22.5066 169.491 22.7141 169.747 22.9515C169.804 23.0108 169.833 23.0404 169.861 23.0996L170.032 23.6927C169.89 23.6334 169.747 23.5444 169.605 23.4851C169.263 23.2776 169.007 23.1591 168.779 23.6334C169.064 23.7519 169.292 23.8706 169.491 23.9595C169.89 24.1967 170.089 24.4341 170.26 24.5822C170.288 24.7601 170.431 25.0269 170.459 25.2939C170.061 25.2939 169.662 24.9084 169.292 24.8194C169.149 24.7898 169.035 24.7898 168.922 24.8492V24.8788L168.893 25.116C168.978 25.1456 169.092 25.2049 169.206 25.2641C169.662 25.5311 170.317 26.0351 170.602 26.4799C170.715 26.6578 170.772 26.8061 170.715 26.9543C170.658 26.9543 170.602 26.9543 170.545 26.9246C170.061 26.8061 169.519 26.1538 169.178 26.4206C169.178 26.7171 169.32 26.8654 169.406 26.9543C169.747 27.3398 170.146 27.4584 170.459 27.6364C170.801 27.8439 171.029 28.0811 170.972 28.8223C170.715 28.7631 170.545 28.7038 170.374 28.6148C170.118 28.4963 169.861 28.3776 169.292 28.1404C168.808 28.4072 169.633 28.941 170.004 29.0299C170.118 29.0595 170.231 29.1189 170.345 29.1782C170.687 29.3561 171.029 29.6526 171.029 29.8601L171.057 30.6904C170.829 30.6015 170.545 30.4532 170.288 30.3049C169.833 30.0677 169.377 29.8601 168.95 30.1566C168.95 30.7496 169.69 30.7496 170.288 31.0759C170.715 31.3131 171.086 31.7282 170.972 32.6769C170.744 32.7066 170.545 32.6473 170.374 32.5584C169.947 32.3213 169.605 31.9061 169.206 31.9061L169.064 32.4694C169.519 32.7364 169.975 33.2108 170.459 33.5666C170.602 33.6555 170.715 33.7444 170.858 33.8038L170.715 34.6637C170.687 34.6637 170.63 34.6341 170.602 34.6341C170.146 34.4561 169.377 33.6851 169.092 33.6851C169.007 33.774 168.95 33.8631 168.922 33.9519C168.865 34.1003 168.865 34.2189 168.978 34.3671C168.978 34.3671 168.978 34.3967 169.007 34.3967C169.007 34.4265 170.032 35.2566 170.602 35.5236C170.402 36.9171 169.804 36.6206 169.292 36.2055C168.779 35.82 168.323 35.3456 168.323 36.1463C168.608 36.5019 169.092 36.7986 169.491 37.1543C169.69 37.3322 169.861 37.5101 170.004 37.7473C169.918 38.0141 169.861 38.1921 169.776 38.3996C169.747 38.4887 169.69 38.6072 169.662 38.6963C169.064 38.1624 168.437 37.6288 167.839 37.1543C165.988 35.6717 164.081 34.4858 161.803 33.4776C162.173 32.1137 166.359 34.6043 166.359 34.8713C166.473 34.6043 166.615 34.5746 166.672 34.3671C166.245 34.041 163.881 32.4398 163.226 32.3509C163.198 32.2618 163.71 31.7578 163.767 31.6095C163.938 31.5799 165.22 32.0841 165.39 32.1729C165.931 31.491 164.622 31.4316 164.251 30.8979C164.451 30.6904 164.508 30.4532 164.622 30.1269C164.935 30.2456 165.334 30.7496 165.618 30.5421C165.761 30.3641 165.761 30.2456 165.704 30.0677C164.65 29.3561 164.821 29.8305 165.077 28.5259C166.501 28.674 165.988 28.2293 165.248 27.8141L165.39 26.9246C165.704 27.0433 166.302 27.1618 166.131 26.5689C165.903 26.4503 165.818 26.5095 165.504 26.2427C165.618 25.9759 165.647 25.7387 165.675 25.3532C165.903 25.2641 166.045 25.3236 166.245 25.2345C166.302 24.8194 165.96 24.8194 165.732 24.6118C165.789 24.345 165.761 24.1374 165.761 23.841L166.302 23.9299C166.416 23.9299 166.558 23.4555 166.359 23.3963C166.017 23.2776 165.362 22.9515 165.134 22.566C167.184 22.8624 167.412 21.8543 168.437 21.2019C168.466 21.1723 168.551 21.1723 168.665 21.2019C168.865 21.2316 169.121 21.3206 169.263 21.4391L169.548 22.0916C169.263 22.1805 168.808 21.8841 168.608 21.9137C168.494 22.3584 168.694 22.3584 168.694 22.4473ZM154.37 47.8288C154.598 47.5322 154.769 47.2654 154.911 46.9391C156.42 48.3624 156.819 50.5864 156.819 52.1874C156.42 52.2765 155.993 52.4841 155.566 52.6026C155.936 50.7641 155.31 49.3114 154.37 47.8288ZM149.045 48.4217C151.58 48.5404 153.231 49.074 153.288 50.616C153.345 52.2765 151.409 52.9288 149.045 53.0177V52.4246C146.312 52.3358 145.059 51.9206 145.059 50.5864C145.059 49.1334 146.653 48.9555 149.045 49.0444V48.4217ZM153.601 33.9223C155.31 32.5584 156.876 35.4345 155.082 36.7689C153.431 38.3404 151.58 38.3404 149.472 38.3404C149.415 40.6236 153.06 42.9066 155.025 42.2543C158.158 41.9578 160.065 37.9253 162.23 39.3486C162.97 39.8229 162.628 40.4456 163.169 41.0091C163.596 40.9793 163.596 40.7124 163.682 40.3864C162.287 39.4374 164.422 37.6584 161.375 37.3916C160.094 37.2729 159.61 35.1084 156.591 35.9387C157.987 33.8927 161.461 34.1003 162.714 34.9601C166.017 37.2433 163.796 43.5887 162.942 42.9066C162.856 38.8148 155.595 44.0631 154.399 43.6479C151.722 43.3217 150.184 41.1276 149.074 40.92H148.504V42.4026C147.08 42.2841 147.764 41.8689 146.226 41.8689C144.66 41.8689 144.717 42.4618 143.293 43.1439C144.318 40.92 144.603 40.3269 145.97 40.1788C146.454 40.1788 148.988 40.9793 149.102 40.2381V37.0061C151.295 37.1246 152.007 36.4723 153.089 35.3753C153.317 35.7311 154.256 36.4427 154.627 35.9091C154.285 35.3753 152.918 35.7904 153.601 33.9223ZM162.771 21.9137L163.739 22.1213C164.081 23.4259 164.365 26.3614 161.233 27.7845C158.784 28.9114 156.25 27.1618 155.168 25.3532L156.164 25.0269C156.734 26.1538 158.983 27.7549 160.891 26.8061C162.97 25.7979 162.913 23.841 162.771 21.9137ZM160.578 22.2398C161.005 21.9729 161.29 21.9433 161.717 21.9729C162.571 24.7009 161.546 25.7979 160.607 26.2131C159.097 26.8358 157.759 25.8868 156.962 24.7305C157.189 24.5526 157.73 24.0189 157.987 23.9891C158.3 25.1753 159.211 25.4421 160.094 25.1456C161.091 24.7898 161.575 23.3963 160.578 22.2398ZM156.449 24.345C154.883 25.0566 153.658 24.4933 152.776 23.9891C156.534 23.4555 156.42 22.1805 158.784 20.52C159.638 20.1641 161.489 20.5496 162.059 21.2316C157.645 21.6765 158.983 23.1887 156.449 24.345ZM159.411 28.8223C162.571 28.9706 164.052 27.2509 164.906 24.2561H165.02C164.963 26.4799 163.596 29.0299 160.607 29.3265C155.509 29.8601 151.921 24.2265 151.921 24.2265L151.978 24.0486C154.911 26.6578 156.477 28.674 159.411 28.8223ZM157.389 29.8009C159.752 30.72 163.312 29.0299 164.735 27.3101C163.824 29.0891 161.546 30.6904 158.67 30.6311C157.616 30.6311 154.769 29.6229 152.861 27.0137C153.003 26.9841 156.392 29.8305 157.389 29.8009ZM158.955 38.7555C158.158 38.9631 156.677 37.8956 156.449 37.1841C156.734 37.095 156.933 37.095 157.332 37.2729C158.044 37.6288 157.503 38.0141 158.955 38.7555ZM157.787 36.4427C159.126 36.5614 158.67 37.095 160.008 37.7473C159.325 37.8066 157.844 37.3026 157.787 36.4427ZM152.064 38.9334C152.434 38.9334 153.003 38.9927 153.231 39.2891C153.601 39.7637 154 40.5049 155.737 41.2759C154.114 41.424 151.807 39.5265 152.064 38.9334ZM153.601 41.4834C153.715 41.5723 151.238 40.8904 150.213 39.1114C150.526 39.141 151.039 39.0816 151.38 39.4078C151.75 39.7637 151.864 40.2381 153.601 41.4834ZM153.402 38.4887C153.687 38.4887 154.484 38.4887 154.684 38.7555C154.94 39.1114 155.794 40.0601 156.962 40.4456C156.05 40.8311 153.715 39.141 153.402 38.4887ZM154.968 37.8066C155.338 37.7769 155.652 37.6584 156.022 37.8956C156.335 38.1032 156.05 38.5183 157.958 39.7341C157.218 39.8526 155.139 38.6072 154.968 37.8066ZM154.085 30.9276C154.342 30.9276 156.42 32.6769 158.585 32.766C160.293 32.8549 162.343 32.4398 163.084 31.3723H163.141C162.6 32.6769 160.122 33.4479 158.471 33.3887C157.645 33.3293 154.94 32.3213 154.085 30.9276ZM158.755 31.9654C157.047 31.8171 154.911 30.8387 153.801 29.1189H153.829C155.595 30.6015 157.332 31.3427 158.955 31.3427C160.977 31.3427 161.973 30.72 164.138 29.4154C163.169 30.8683 160.749 31.8171 158.755 31.9654ZM159.097 42.7881C159.752 42.195 160.037 42.1654 160.72 42.195C161.233 43.9148 160.663 45.8717 159.724 46.1979C160.151 44.0038 159.268 43.7962 159.097 42.7881ZM157.645 45.7236C157.189 45.0416 157.076 44.6858 156.477 44.0334C156.99 43.9444 157.446 43.7368 157.93 43.6479C158.101 44.0631 158.158 44.9229 157.645 45.7236ZM150.554 43.2921C150.241 45.3677 149.444 43.3515 149.558 42.7288C149.871 42.966 150.213 43.0845 150.554 43.2921ZM143.806 45.1009C144.233 43.9444 145.514 43.7368 148.988 44.7746C150.412 44.8637 152.918 44.1519 154.114 45.3084C154.541 45.7236 154.171 46.524 153.687 47.6805H146.739C144.888 47.6509 142.98 46.8799 143.806 45.1009ZM154.769 50.7641C155.054 51.8019 155.025 52.2467 154.94 52.8101C153.402 53.1956 151.921 53.4624 150.298 53.5515C152.975 53.0177 154.085 52.6618 154.769 50.7641ZM155.737 46.7316L157.218 46.9689C157.93 47.8288 158.328 48.6293 158.699 51.3276C158.328 51.5648 157.958 51.6834 157.559 51.8316C157.531 50.1416 156.876 48.2439 155.737 46.7316ZM158.271 47.0578C158.215 46.9095 159.04 46.9689 159.61 46.8206C160.122 47.9473 160.521 48.6887 160.493 50.2009C160.122 50.4677 159.809 50.7049 159.354 50.9124C159.325 48.6887 158.869 48.3624 158.271 47.0578ZM160.208 46.5834C160.607 46.4944 160.806 46.4055 161.119 46.1387C161.518 46.8503 161.973 48.3032 161.945 49.341C161.66 49.4299 161.347 49.845 161.062 49.9933C161.062 49.0444 160.806 47.7694 160.208 46.5834ZM161.66 45.7828C161.803 45.6939 162.4 45.1009 162.429 45.1009C163.169 46.02 163.255 46.791 163.454 47.9769C163.397 48.2141 162.771 48.5996 162.6 48.6887C162.571 47.5916 162.429 46.9095 161.66 45.7828ZM162.97 44.3891C163.169 44.1519 163.397 44.0334 163.596 43.5887C164.394 44.5967 164.707 45.3677 164.935 46.5834C164.65 46.9391 164.394 47.2061 164.081 47.4729C163.91 45.9608 163.739 45.4269 162.97 44.3891ZM164.081 43.1141C164.365 42.8177 164.451 42.699 164.593 42.3137C165.39 43.0253 165.931 43.7963 166.273 44.7746L165.533 45.6345C165.476 45.6641 164.849 43.8851 164.081 43.1141ZM164.963 41.7206C165.163 41.3055 165.163 41.0979 165.248 40.5345C166.473 41.3351 167.213 42.699 167.498 43.2624C167.355 43.5293 167.127 43.7962 166.786 44.2114C166.159 42.9364 165.874 42.6101 164.963 41.7206ZM165.39 39.5561V38.5479C166.245 38.7555 167.839 40.3566 168.494 41.424C168.266 41.8986 168.096 42.2543 167.868 42.6398L167.811 42.6101C167.355 41.6019 166.387 40.2381 165.39 39.5561ZM165.106 37.3916C165.106 36.9171 164.878 36.2648 164.735 35.8496C165.846 36.0868 167.127 37.4213 168.124 38.3404C168.21 38.4293 168.295 38.4887 168.38 38.5776V38.6666C169.576 39.7933 169.263 39.9713 168.836 40.7421C168.808 40.7717 168.779 40.8311 168.779 40.8608C168.295 39.7341 166.017 37.9549 165.106 37.3916ZM165.732 21.9433C165.077 21.8841 164.65 21.6765 164.194 21.291C164.194 21.2019 164.194 21.1427 164.223 21.0834C165.618 21.1131 167.441 20.2236 167.839 18.741C168.067 18.9782 168.295 19.4822 168.523 19.9566C168.01 21.2614 167.156 21.9433 165.732 21.9433ZM164.024 20.4608C163.511 20.4015 161.973 20.1049 161.888 19.4229C162.771 18.2369 165.447 19.3933 166.074 16.0427C166.501 16.6654 167.213 17.7032 167.498 18.0886C166.729 19.9269 164.906 20.4608 164.024 20.4608ZM161.119 18.9189C158.186 19.1265 157.645 21.3206 154.94 22.9217C152.633 23.8114 149.415 22.9217 149.102 20.1641C148.533 15.2125 153.374 13.8485 156.99 15.0049C160.208 16.1613 162.03 16.6357 165.277 15.8351C164.251 18.8891 161.973 18.563 161.119 18.9189ZM163.397 15.2718C163.084 14.8863 164.024 14.234 164.251 14.0857L165.163 14.9456C165.049 15.3607 163.739 15.2718 163.397 15.2718ZM162.6 15.1532L162.343 15.2421C161.774 14.9753 162.514 13.1665 162.828 12.7811L163.625 13.4334C164.024 13.7596 163.112 14.4119 162.6 15.1532ZM161.803 14.2043C161.803 14.3822 161.546 14.3229 161.233 14.0264C160.834 13.0776 161.147 12.4846 161.689 11.9508L162.372 12.4253C161.859 13.0776 161.717 13.4334 161.803 14.2043ZM160.834 12.3956C160.834 13.1665 160.521 12.7514 160.379 12.6921C160.122 12.3363 159.951 11.684 160.493 11.0613C160.834 11.2689 161.005 11.3875 161.261 11.6543C160.948 11.8026 160.777 12.0694 160.834 12.3956ZM160.578 14.738C154.94 12.959 153.687 13.1665 149.956 15.4793C150.839 14.3229 153.402 12.9886 154.285 12.7811C156.534 12.188 157.873 12.188 159.951 13.641C160.436 14.145 160.578 14.5008 160.578 14.738ZM158.784 11.6543C156.193 11.5357 155.253 11.595 154 12.0101C152.889 12.366 151.295 12.7218 149.615 15.0346H149.558C149.017 15.5979 148.988 15.0049 149.245 14.4712C150.355 10.7945 154.313 8.06653 158.015 9.69735C158.784 10.1421 159.866 11.0613 158.784 11.6543ZM136.772 27.8141C138.452 28.6742 139.42 28.2591 140.588 27.8439C140.901 27.5769 141.3 27.5177 141.499 27.5177C141.983 28.0811 139.363 29.0891 138.367 28.8816C135.804 28.6742 133.611 26.4503 134.181 24.1374C134.608 23.5444 135.462 26.1538 136.858 26.5095C139.221 27.5769 141.585 25.4124 142.04 24.5229C142.353 23.9003 143.008 23.7816 143.321 24.1078C143.037 25.7683 141.442 26.6874 140.73 27.1618C139.306 28.0217 137.712 27.9328 136.886 27.4288C136.573 27.3694 136.43 27.6066 136.772 27.8141ZM138.566 20.8166C142.239 20.9055 142.951 25.6496 138.367 25.8276C136.886 25.62 136.402 24.7898 136.288 23.9299C136.43 23.0404 136.772 22.9811 137.37 22.9217C136.174 25.2345 140.958 25.8276 140.559 22.8921C140.702 22.8328 140.673 22.7439 140.702 22.6253C140.702 22.6253 140.559 22.5364 140.474 22.4769C139.221 21.5282 138.395 21.7654 136.715 22.1805C136.63 22.3288 135.32 22.6845 135.035 22.7439V22.7141C133.896 22.5364 133.497 21.8542 133.213 20.8759C135.519 22.0322 136.516 19.0967 138.509 18.741C141.1 18.2369 142.239 20.52 142.923 22.5066C143.008 23.4259 142.439 23.2776 142.211 22.5956C141.727 20.5496 140.673 19.8381 138.566 20.0456V20.8166ZM148.476 53.3141C145.77 53.3736 143.008 52.4543 142.951 50.616C143.122 48.6293 145.315 48.0364 148.476 48.0956V48.6293C146.625 48.6293 144.09 48.6887 144.033 50.5269C143.977 52.6026 146.995 52.7213 148.476 52.7213V53.3141ZM172.823 42.1654C172.538 42.7881 172.253 43.4108 171.911 44.0038C171.598 44.5671 171.285 45.1009 170.943 45.6345C166.245 53.0473 158.186 57.9398 149.045 57.9398V56.7834V55.9236C157.901 55.9236 165.675 50.9421 169.918 43.5293C170.26 42.9364 170.573 42.3137 170.886 41.691C171.228 40.9793 171.513 40.2381 171.797 39.4967C172.794 36.7391 173.335 33.7444 173.335 30.6311C173.335 27.5177 172.794 24.5229 171.797 21.7654C171.513 21.0242 171.228 20.2828 170.886 19.5713C170.602 18.9486 170.26 18.3258 169.918 17.7328C165.675 10.32 157.901 5.33863 149.045 5.33863V4.53804V3.35201C158.186 3.35201 166.245 8.27409 170.943 15.6572C171.285 16.191 171.598 16.7247 171.911 17.288C172.225 17.8811 172.538 18.5038 172.823 19.1265C174.389 22.6253 175.272 26.5391 175.272 30.6311C175.272 34.7822 174.389 38.6666 172.823 42.1654ZM196.6 1.75084C187.289 1.75084 179.059 6.55432 174.019 13.8782C177.037 18.7113 178.803 24.4933 178.803 30.6904C178.803 36.8874 177.037 42.6694 174.019 47.5026C179.059 54.8265 187.316 59.6299 196.6 59.6299C211.919 59.6299 224.393 46.6427 224.393 30.6904C224.393 14.738 211.919 1.75084 196.6 1.75084ZM137.541 12.7811C140.389 12.0694 141.442 10.9724 145.6 12.8107C145.856 12.959 146.169 13.1962 146.112 12.6328C145.543 10.913 144.945 10.7055 144.945 10.6758C142.069 10.1718 139.99 11.002 137.569 12.3956C137.398 12.4253 137.171 12.7218 137.541 12.7811ZM146.34 50.616C146.369 51.7131 147.308 51.9503 149.074 52.0391V51.5648C150.099 51.5944 150.925 51.3572 150.925 50.6456C150.925 50.0526 150.184 49.6967 149.074 49.7561V49.3706C147.251 49.3706 146.312 49.8746 146.34 50.616ZM148.476 51.2091C147.849 51.2683 147.137 51.1793 147.137 50.616C147.137 50.0229 147.935 49.9637 148.476 50.0229V51.2091Z" fill="white"/>
<path d="M190.021 20.7568L196.969 38.7847L203.917 20.7568H207.533V42.8766H204.741V34.2778L204.998 24.9969L198.021 42.9062H195.886L188.938 25.0562L189.223 34.3074V42.9062H186.432V20.7568H190.021Z" fill="#005DED"/>
<path d="M14.9216 37.2446H5.8378L3.78753 43.1452H0.854492L9.11254 20.6104H11.6184L19.9049 43.1452H16.9719L14.9216 37.2446ZM6.69208 34.8133H14.0674L10.3655 24.2574L6.69208 34.8133ZM35.8515 23.0417H28.9033V43.1452H26.0557V23.0417H19.1076V20.6104H35.8515V23.0417ZM41.9454 40.7138H52.1967V43.1452H39.0694V20.6104H41.9454V40.7138ZM67.7162 37.2446H58.6323L56.582 43.1452H53.6491L61.9071 20.6104H64.413L72.6994 43.1452H69.7665L67.7162 37.2446ZM59.4866 34.8133H66.8619L63.1601 24.2574L59.4866 34.8133ZM92.2625 43.1452H89.3864L78.4801 25.7696V43.1452H75.604V20.6104H78.4801L89.4149 38.0749V20.6104H92.2625V43.1452ZM111.854 23.0417H104.906V43.1452H102.058V23.0417H95.1101V20.6104H111.854V23.0417Z" fill="white"/>
</svg>
