<svg width="94" height="79" viewBox="0 0 94 79" fill="none" xmlns="http://www.w3.org/2000/svg">
<path d="M2.38607 48.3836C2.38607 48.3836 4.6071 49.0504 5.82853 49.2447C7.05016 49.4391 7.05016 49.4391 7.05016 49.4391L7.07779 60.5221C7.07779 60.5221 5.68979 51.6058 2.38607 48.3836ZM40.8798 74.1033H40.5232L40.2902 73.8191C39.9603 74.0522 39.6108 74.1688 39.242 74.1688C38.684 74.1688 38.2933 74.0157 38.07 73.7098C37.8807 73.4476 37.7861 73.0278 37.7861 72.4498V70.6435C37.7861 70.0318 37.8882 69.602 38.092 69.3545C38.32 69.0729 38.7325 68.932 39.3294 68.932C39.8924 68.932 40.2916 69.0582 40.5268 69.3108C40.7621 69.5633 40.8798 69.9735 40.8798 70.5415V70.7454H39.759V70.374C39.759 70.1992 39.7347 70.0779 39.686 70.0098C39.623 69.9321 39.504 69.8932 39.3294 69.8932C39.1643 69.8932 39.0504 69.9259 38.9872 69.9916C38.9241 70.057 38.8927 70.1725 38.8927 70.3375V72.588C38.8927 72.8064 38.9194 72.9569 38.9727 73.0396C39.0395 73.1463 39.1743 73.1997 39.3768 73.1997C39.5892 73.1997 39.7285 73.1414 39.7954 73.025C39.8488 72.9375 39.8753 72.7773 39.8753 72.5442V71.8669H39.5187V71.0293H40.88V74.1033H40.8798ZM44.9562 74.1033H43.8025C43.7684 73.3652 43.5682 72.5982 43.2031 71.802C43.0574 71.802 42.9108 71.7899 42.7653 71.7657V74.1035H41.6805V68.9907H43.151C44.2334 68.9907 44.7742 69.4739 44.7742 70.4402C44.7742 70.9305 44.5778 71.3118 44.1847 71.5836C44.5923 72.297 44.8494 73.1371 44.9562 74.1033ZM43.6895 70.3888C43.6895 70.0587 43.4966 69.8936 43.1097 69.8936H42.7288V70.8694C42.8803 70.9132 43.0223 70.935 43.1544 70.935C43.3498 70.935 43.4881 70.8925 43.568 70.8077C43.6496 70.7227 43.6895 70.5831 43.6895 70.3888ZM48.5598 72.45C48.5598 73.0618 48.4553 73.4939 48.2466 73.7463C48.0186 74.0279 47.6059 74.1688 47.0092 74.1688C46.417 74.1688 46.0045 74.0255 45.7716 73.739C45.5678 73.4866 45.4659 73.0568 45.4659 72.4498V70.6435C45.4659 70.0365 45.5678 69.6045 45.7716 69.3471C46.0045 69.0656 46.417 68.9247 47.0092 68.9247C47.6059 68.9247 48.0186 69.0654 48.2466 69.3471C48.4553 69.5996 48.5598 70.0316 48.5598 70.6435V72.45ZM47.4386 72.7122V70.3741C47.4386 70.1994 47.4143 70.0781 47.3658 70.01C47.3026 69.9274 47.1838 69.886 47.0092 69.886C46.8441 69.886 46.73 69.9201 46.667 69.9882C46.6039 70.0563 46.5723 70.1727 46.5723 70.3378V72.756C46.5723 72.921 46.6039 73.0376 46.667 73.1055C46.73 73.1736 46.8439 73.2074 47.0092 73.2074C47.1934 73.2074 47.3149 73.166 47.3731 73.0837C47.4168 73.0158 47.4386 72.8918 47.4386 72.7122ZM52.345 72.45C52.345 73.0569 52.2431 73.4867 52.0391 73.7392C51.8064 74.0256 51.3939 74.169 50.8017 74.169C50.2097 74.169 49.7997 74.0256 49.5714 73.7392C49.3725 73.4914 49.2731 73.0618 49.2731 72.45V68.9905H50.3721V72.756C50.3721 72.921 50.4026 73.0376 50.4642 73.1055C50.525 73.1736 50.6391 73.2074 50.8053 73.2074C50.9957 73.2074 51.1232 73.1589 51.1875 73.0618C51.236 72.989 51.2602 72.8579 51.2602 72.6685V68.9905H52.3448V72.45H52.345ZM56.2394 70.8331C56.2394 72.0907 55.7542 72.7195 54.7837 72.7195C54.5895 72.7195 54.3978 72.7048 54.2086 72.6759V74.1033H53.1387V68.9905H54.5653C55.1866 68.9905 55.6258 69.1459 55.883 69.4568C56.1206 69.7382 56.2394 70.1971 56.2394 70.8331ZM55.1547 70.8478C55.1547 70.5466 55.1206 70.3331 55.0516 70.2069C54.9544 70.0369 54.7689 69.9519 54.4948 69.9519H54.2083V71.7655C54.3551 71.7897 54.5019 71.8018 54.6486 71.8018C54.8779 71.8018 55.0272 71.6901 55.0962 71.4666C55.1355 71.3504 55.1547 71.144 55.1547 70.8478ZM32.8047 22.2432C32.8047 22.2432 33.7589 21.1637 33.2611 19.3785L33.1983 19.1532C33.5944 19.7308 34.0718 20.48 34.3184 21.0635C34.7862 22.1697 34.0846 22.9566 34.0846 22.9566C35.0278 22.2389 35.0005 20.692 34.0821 19.8077C35.4767 19.8555 37.1533 21.1007 36.8929 23.1575C36.8929 23.1575 37.016 22.6651 37.0512 22.2428C37.0608 22.1268 37.0559 21.9481 37.0117 21.7376C37.2046 21.9511 37.4695 22.1554 38.0531 22.5242C39.2649 23.2898 39.58 24.0598 39.1386 25.0928C38.6971 26.1261 38.8161 26.9256 39.4211 27.6376C39.6108 27.8607 38.8885 26.9875 39.2203 25.8452C39.11 25.3744 39.2051 24.923 39.6283 24.753C40.0517 24.5829 40.8155 23.9778 40.8155 23.9778C40.5224 22.9213 39.1918 22.685 38.3693 22.1725C37.7502 21.7865 37.1663 21.3889 36.7831 21.122C36.2906 19.2901 34.4363 19.0221 33.7828 19.2203C33.7482 19.1483 33.9419 19.5792 33.68 19.0004C33.4181 18.4217 32.6749 16.739 32.6323 16.6746C32.6313 16.6731 32.1183 18.7967 31.8904 19.3584C31.7714 19.3388 31.6065 19.3328 31.4086 19.3723C31.4086 19.3723 31.2694 18.7102 30.3539 17.9198C29.4385 17.1296 29.3127 16.4113 29.3127 16.4113C28.6658 16.7864 28.485 19.3202 28.9529 19.972C26.2587 20.4155 25.7406 21.5948 25.9353 23.4286C25.8966 23.5016 25.8648 23.5601 25.849 23.5894C25.7595 23.6848 25.4557 24.0741 25.0551 25.2943C24.8267 25.9902 24.6684 26.4217 24.3979 26.8384C24.1253 27.2586 23.732 27.6765 23.0328 28.346C22.3195 29.0291 21.8542 29.2516 21.4511 29.8332C21.0285 30.4432 20.6899 31.408 20.9125 32.0091C21.1483 32.6458 21.4918 32.9673 21.763 33.2212C21.9497 33.3961 22.0964 33.5332 22.117 33.7133C22.1336 33.8564 22.1195 33.9879 22.1075 34.1015C22.0682 34.4692 22.043 34.7039 22.6088 34.7984C22.9098 34.8484 23.1565 34.6389 23.4135 34.3313C23.6338 34.3392 23.906 34.441 23.991 34.9364C23.8538 35.1432 23.6947 35.3862 23.9888 35.3745C24.3232 35.3954 24.7272 35.212 24.9686 34.9959C25.4281 34.5845 25.5732 35.4072 26.6373 34.391C27.9608 33.4221 26.9731 32.0983 26.9731 32.0983C27.1383 31.41 28.3908 30.5754 29.8294 31.1006C28.8636 32.3486 28.2436 34.1573 28.8847 36.0667C27.7249 36.314 27.7266 36.8992 28.855 37.284C29.6483 37.5547 30.8404 37.7774 31.7868 37.834C33.5008 37.946 35.3799 37.946 37.0937 37.834C38.0401 37.7774 39.2318 37.5547 40.0255 37.284C41.0932 36.9197 41.1519 36.3763 40.1722 36.1094C40.842 35.4874 42.4406 33.5742 41.6487 30.0168C42.0373 29.1136 42.2131 28.1742 42.0462 27.2507L41.0315 27.0295C41.4433 28.9443 40.7328 31.2238 38.6355 33.8976C39.6208 33.0322 40.6001 31.9519 41.2665 30.7805C41.2848 33.9241 39.7704 35.6326 38.4456 36.3646C37.5231 36.8746 35.8102 37.1261 34.8813 37.24C34.8813 37.24 35.161 37.291 37.3353 37.1001C39.5095 36.9092 39.8956 36.3394 39.8956 36.3394C39.8956 36.3394 39.9814 36.2806 40.1167 36.1596C40.3181 36.3377 40.4051 36.7057 39.0011 37.0431C36.9662 37.5321 31.9137 37.5321 29.879 37.0431C28.1911 36.6374 28.6577 36.1876 28.8881 36.0767C28.9176 36.1641 28.9497 36.2516 28.9845 36.3394C28.9845 36.3394 29.3706 36.9092 31.5449 37.1001C33.7191 37.2908 33.9988 37.24 33.9988 37.24C33.0699 37.1261 31.3571 36.8746 30.4345 36.3646C29.9363 36.0895 29.6686 35.7387 29.879 35.2936C30.384 34.008 37.6426 28.4575 32.7578 24.2711C36.3971 28.6845 30.3853 33.2549 29.1851 35.6971C29.2048 35.1672 29.5633 34.4645 32.0636 31.3376C34.5638 28.2105 33.5598 26.2777 33.5598 26.2777C34.2425 29.6101 30.533 31.7445 29.1522 33.3572C29.1588 33.3277 29.1657 33.2979 29.1729 33.2678C29.4385 32.2995 29.8506 31.8381 30.3368 30.9799C32.3337 30.1808 33.3508 28.7483 32.8274 25.9233C32.6691 29.4226 29.1311 31.8131 27.2414 29.6007L27.7734 30.6411C27.0761 30.914 26.7646 31.209 26.4653 31.6918C26.2254 31.5394 25.6202 31.2326 24.8579 31.4187C23.8653 31.6609 23.0905 32.545 23.0905 32.545C23.0905 32.545 23.151 32.5087 24.0831 32.0242C26.2867 30.8787 28.1486 33.4522 25.8389 34.609C25.6024 34.6533 24.9729 34.7532 24.5195 34.8241C24.5336 34.8134 24.5483 34.8025 24.5633 34.7916C24.7329 34.6695 24.9481 34.5674 25.1677 34.4634C25.5886 34.2638 26.0242 34.0575 26.2809 33.6578C26.386 33.4941 26.4143 33.3173 26.3803 33.149C26.3495 32.9953 26.2666 32.8514 26.1434 32.7344C26.0248 32.6215 25.868 32.533 25.6847 32.4848C25.3916 32.4077 25.0292 32.4325 24.646 32.6281C24.1352 32.889 23.7622 33.3769 23.4383 33.8011C23.1349 34.1982 22.8799 34.5317 22.6589 34.4948C22.3795 34.4483 22.3925 34.3259 22.413 34.1344C22.4269 34.0046 22.4428 33.8541 22.4225 33.6786C22.3891 33.3877 22.2056 33.2159 21.9721 32.9974C21.7249 32.766 21.412 32.4731 21.2013 31.9034C21.0195 31.4125 21.2368 30.5566 21.6027 30.0288C21.9879 29.4728 22.5438 29.2402 23.2454 28.5683C23.9615 27.8825 24.367 27.4508 24.6552 27.0063C24.9459 26.5585 25.1109 26.1101 25.3474 25.3898C25.6875 24.3538 25.9891 24.0484 26.3895 23.2117C27.0829 22.6461 28.1058 22.5517 28.7023 22.3692C28.8668 22.8218 29.4395 23.1154 29.4868 23.681C30.2676 23.4867 30.4575 22.9896 30.5096 22.786C31.7112 23.5095 32.3437 23.5732 32.6997 23.6345C32.6997 23.6345 32.6168 22.0777 32.3055 21.434C31.9942 20.7905 32.3884 19.6281 32.6791 19.4827C32.9705 19.3369 33.4049 20.3955 32.8047 22.2432ZM40.9417 37.5077L40.8682 37.6612C40.8682 37.6612 40.5997 37.6774 40.2957 37.7355C40.3254 37.7263 40.356 37.7172 40.3878 37.7086C40.388 37.6459 40.3893 37.582 40.3923 37.5169C39.968 37.7304 39.2655 37.9145 38.1903 38.0598C35.9031 38.3686 32.9776 38.3686 30.6904 38.0598C29.6152 37.9145 28.9127 37.7304 28.4884 37.5169C28.6123 40.1561 26.3352 40.7704 25.458 41.987C25.5627 44.0636 31.3099 45.0206 32.6616 45.1846C32.6616 45.1846 30.0897 45.099 28.0505 44.4864C26.466 44.0105 25.6063 43.5465 25.2739 43.1231C25.9564 44.1949 28.607 45.1382 33.2551 45.7085C30.3484 45.7378 27.3376 44.9766 25.9466 44.2953C26.99 44.8805 29.3189 45.7602 34.1936 46.1136C32.5791 46.2729 27.7837 45.9253 25.7293 44.6205C26.4175 45.3656 27.9511 45.6618 28.7997 45.827C30.7423 46.2052 33.4937 46.345 36.0345 46.2464C36.0279 46.2127 36.0219 46.1787 36.0164 46.1441C35.4752 46.1574 35.0157 46.146 34.6877 46.1136C35.1466 46.0803 35.5825 46.0423 35.9969 46.0004C35.9864 45.9054 35.98 45.8078 35.9788 45.7081C35.8612 45.7094 35.7435 45.7096 35.626 45.7085C35.7448 45.694 35.8623 45.6791 35.9785 45.6641C35.8301 44.7326 37.2783 42.8786 38.822 41.7731C39.2641 41.4566 39.5747 40.4843 39.8727 39.272C39.8727 39.272 39.6494 41.5051 38.9378 42.0178C38.226 42.5308 35.6549 44.955 36.3073 46.2415C36.9598 47.5281 36.4633 47.3673 36.4633 47.3673C36.3379 47.1519 36.1952 46.8587 36.0975 46.5105C33.5211 46.6138 30.7235 46.4733 28.7499 46.089C26.3916 45.6296 25.6193 44.957 25.4129 44.7215C25.2933 44.7714 25.0709 44.923 25.1145 45.3556C25.2087 45.4762 25.7007 46.0169 27.2729 46.5165C29.0806 47.0911 31.9549 47.3671 31.9626 47.3676C30.6603 47.5334 27.7456 46.9463 27.1925 46.7706C26.288 46.4832 25.7167 46.1723 25.3679 45.9276C26.7674 47.2949 31.6686 47.8823 36.08 47.6908C36.192 47.5142 36.3471 47.4179 36.4633 47.3673L35.7916 48.8275C31.2181 49.0056 26.2404 48.2793 24.9863 46.6435V45.8486C24.9196 45.7047 24.872 45.5604 24.8543 45.4222C24.7752 44.8047 25.1023 44.5671 25.2995 44.481C24.8993 43.7938 24.2975 42.1907 26.1705 40.6769C28.4598 38.827 27.8753 36.7894 27.8736 36.7841C28.2002 37.355 29.9664 37.6922 30.7265 37.7949C32.9936 38.1011 35.8882 38.1011 38.1553 37.7949C38.9154 37.6922 40.6817 37.3548 41.0082 36.7841C41.0073 36.7864 40.9274 37.0645 40.9417 37.5077ZM35.2285 44.3295C35.2285 44.3295 32.4486 45.0507 28.8191 43.8917C25.1897 42.7328 26.4252 41.4707 26.4252 41.4707C26.4252 41.4707 27.5064 40.8011 28.2015 39.668C28.8965 38.5347 28.742 37.9166 28.742 37.9166C28.742 37.9166 29.8747 38.5605 33.7356 38.6893C37.5968 38.818 38.3948 38.4832 38.3948 38.4832C38.3948 38.4832 36.1811 39.5134 32.7319 39.2043C29.2825 38.8953 29.437 38.7407 28.6647 39.8739C27.8924 41.0072 24.9318 43.5311 35.2285 44.3295ZM36.8624 36.5762C36.2362 36.884 31.5565 37.4925 30.0943 35.4174C30.1439 35.1131 30.3795 34.8529 30.525 34.6251C30.525 34.6251 30.9952 36.8627 36.8624 36.5762ZM23.7323 33.9243C24.0251 33.5423 24.3614 33.1196 24.7868 32.9024C25.0961 32.7446 25.3815 32.7224 25.6075 32.7818C25.739 32.8164 25.85 32.8787 25.9323 32.9567C26.0101 33.0307 26.0618 33.1183 26.0801 33.2086C26.0987 33.3004 26.0821 33.3984 26.0227 33.4909C25.8137 33.8163 25.4187 34.0035 25.0372 34.1842C24.8058 34.2939 24.5787 34.4017 24.3845 34.5414C24.3268 34.5832 24.2749 34.6248 24.2288 34.6661C24.2031 34.4071 24.1031 34.0187 23.7323 33.9243ZM28.6499 24.2985C28.651 24.2829 28.4006 25.2672 27.8458 25.8556C27.0297 26.7212 26.5074 26.5905 26.6542 26.427C26.8012 26.2637 26.6217 26.1659 26.4583 25.9208C26.2952 25.6759 26.1092 25.3458 26.1092 25.3458C26.0333 25.4822 25.9949 25.5512 25.8242 25.517C25.7742 25.507 25.7298 25.4807 25.693 25.4399C25.6462 25.388 25.6116 25.3075 25.5982 25.2074C25.587 25.1235 25.5896 25.0219 25.612 24.91C25.6648 24.645 25.8302 24.3042 26.1921 23.9774C26.9033 23.3355 27.7238 23.3178 27.7262 23.3178C27.4391 23.4997 26.1718 23.6825 25.9146 24.9704C25.9054 25.0169 25.9007 25.059 25.8998 25.0966C25.9893 24.9585 26.1564 24.7627 26.5469 24.5459C27.3271 24.1117 28.6463 24.2981 28.6499 24.2985ZM26.6965 24.8141C27.1043 24.5874 27.6982 24.5551 28.1156 24.5666C27.9712 25.2236 27.1342 26.5801 26.5213 25.6171C26.3119 25.2881 26.3559 24.9901 26.6965 24.8141ZM28.5983 25.9863C26.646 27.122 27.0319 29.0301 27.0319 29.0301C27.0319 29.0301 26.646 28.5756 27.1002 27.3265C27.554 26.0771 28.5983 25.9863 28.5983 25.9863ZM35.8747 21.1912C38.2286 22.6391 34.4414 24.4285 36.9185 26.9456C36.9185 26.9456 36.7267 26.5833 37.1527 26.0079C37.5787 25.4325 37.7917 24.857 37.7917 24.857C37.7917 24.857 37.6214 25.0488 38.3458 26.1783C39.0701 27.3079 38.6652 28.3311 38.0901 29.6737C37.515 31.0163 38.1328 32.2098 38.1328 32.2098C38.1328 32.2098 37.1954 31.059 37.9198 29.2261C38.6441 27.3931 38.3243 26.8604 37.9624 26.3915C37.6002 25.9225 37.9837 25.4538 37.4725 26.2848C36.9611 27.116 37.3244 28.6591 37.3244 28.6591C33.0338 24.9277 37.4761 23.1051 35.8747 21.1912ZM22.4325 32.4414C21.5974 30.523 23.5195 29.362 23.3827 30.6614C23.3422 31.0457 22.797 31.3333 22.5336 31.612C22.2701 31.8908 22.4325 32.4414 22.4325 32.4414ZM23.6455 29.6096C23.6455 29.6096 23.039 29.205 22.5133 29.751C21.9877 30.2973 21.9674 31.1266 21.9674 31.1266C21.7158 28.7485 24.163 28.7379 23.6455 29.6096ZM30.9386 19.5388C30.8957 19.5604 30.8523 19.5843 30.8081 19.6106C30.3341 19.8922 29.9747 19.7716 29.1693 19.9261C28.7837 19.2294 28.864 17.9616 29.2642 17.1949C29.3178 18.8242 30.1725 18.3203 30.9386 19.5388ZM31.715 19.8258C31.5496 20.3007 31.4768 20.6241 31.4768 20.6241C31.9382 21.0526 32.2576 22.3322 32.2555 23.2078C31.6054 22.9038 29.954 22.6491 29.9207 20.9147C29.3039 21.9503 30.8861 22.7155 29.6519 23.1692C29.5626 22.919 28.9164 22.275 29.1065 21.7668C28.6474 22.1841 27.1015 22.4969 27.1015 22.4969C27.686 21.5042 28.6544 22.1898 29.5662 20.2795C28.9681 21.4071 27.4668 21.4011 26.6884 21.9274C26.9178 20.6655 28.4979 20.1734 30.0629 20.0692C30.7679 20.0224 31.3644 19.9753 31.715 19.8258ZM61.2209 22.2432C61.2209 22.2432 60.2664 21.1637 60.7644 19.3785L60.8274 19.1532C60.4312 19.7308 59.9537 20.48 59.7071 21.0635C59.2393 22.1697 59.9409 22.9566 59.9409 22.9566C58.9976 22.2389 59.025 20.6918 59.9434 19.8077C58.5486 19.8555 56.8566 20.8432 57.1852 24.3709C56.8514 23.707 56.8786 22.3818 57.0136 21.7376C56.8207 21.9511 56.556 22.1554 55.9721 22.5242C54.7604 23.2898 54.4453 24.0598 54.8866 25.0928C55.328 26.1261 55.209 26.9256 54.604 27.6376C54.4145 27.8607 55.1366 26.9875 54.8048 25.8452C54.6211 26.3892 53.9492 26.7667 52.9936 27.0293C52.5819 28.9441 53.2923 31.2236 55.3897 33.8974C54.4044 33.032 53.4251 31.9517 52.7586 30.7803C52.7406 33.9239 54.2547 35.6324 55.5795 36.3645C56.502 36.8744 58.2149 37.1259 59.1438 37.2398C59.1438 37.2398 58.8641 37.2908 56.6899 37.0999C54.5156 36.909 54.1295 36.3392 54.1295 36.3392C54.1295 36.3392 54.0436 36.2804 53.9084 36.1594C53.7071 36.3376 53.6202 36.7055 55.024 37.0429C57.0589 37.532 62.1114 37.532 64.1461 37.0429C65.8338 36.6372 65.3672 36.1875 65.1371 36.0765C65.1076 36.1638 65.0754 36.2514 65.0406 36.3392C65.0406 36.3392 64.6545 36.909 62.4803 37.0999C60.3059 37.2906 60.0263 37.2398 60.0263 37.2398C60.9552 37.1259 62.6681 36.8744 63.5906 36.3645C64.0888 36.0893 64.3565 35.7385 64.1459 35.2934C63.641 34.0078 56.3825 28.4573 61.2673 24.2707C57.6278 28.6841 63.6397 33.2547 64.8399 35.6967C64.8203 35.1669 64.4618 34.4641 61.9614 31.3372C59.4612 28.2101 60.4651 26.2773 60.4651 26.2773C59.7826 29.6098 63.4921 31.7441 64.8727 33.3568C64.8662 33.3271 64.8592 33.2974 64.8521 33.2673C64.5864 32.2991 64.1743 31.8376 63.6882 30.9793C61.6912 30.1803 60.674 28.7477 61.1974 25.9227C61.3558 29.422 64.8936 31.8125 66.7834 29.6004L66.2515 30.6407C66.9486 30.9136 67.2602 31.2084 67.5595 31.6914C67.7993 31.5391 68.4045 31.2323 69.167 31.4181C70.1597 31.6604 70.9342 32.5444 70.9342 32.5444C70.9342 32.5444 70.8737 32.5081 69.9416 32.0236C67.7381 30.8781 65.8761 33.4516 68.1859 34.6084C68.4226 34.6528 69.052 34.7527 69.5053 34.8236C69.4912 34.8129 69.4765 34.8019 69.4613 34.791C69.2919 34.669 69.0764 34.5668 68.8568 34.4628C68.4359 34.2632 68.0003 34.0569 67.7437 33.6572C67.6386 33.4936 67.6104 33.3167 67.6442 33.1484C67.6753 32.9947 67.7582 32.8508 67.8813 32.7338C67.9999 32.621 68.1565 32.5324 68.34 32.4842C68.6329 32.4071 68.9956 32.4321 69.3787 32.6276C69.8897 32.8885 70.2627 33.3766 70.5864 33.8007C70.8899 34.1976 71.1446 34.5313 71.3659 34.4942C71.6453 34.4476 71.6321 34.3253 71.6118 34.1336C71.5981 34.0039 71.5819 33.8536 71.6022 33.6779C71.6359 33.3869 71.8192 33.2152 72.0527 32.9966C72.2999 32.7653 72.6127 32.4724 72.8236 31.9026C73.0054 31.4115 72.7881 30.5557 72.4225 30.0281C72.0371 29.4721 71.4811 29.2394 70.7795 28.5675C70.0634 27.8817 69.6581 27.4501 69.3697 27.0056C69.0793 26.5577 68.914 26.1091 68.6775 25.3891C68.3374 24.3531 68.0359 24.0476 67.6354 23.211C66.9421 22.6452 65.9192 22.5509 65.3228 22.3685C65.1583 22.821 64.5857 23.1146 64.5385 23.6802C63.7575 23.4861 63.5678 22.9888 63.5156 22.7853C62.3141 23.5089 61.6816 23.5725 61.3254 23.6338C61.3254 23.6338 61.4085 22.0769 61.7196 21.4333C62.0308 20.7898 61.8651 20.243 61.5747 20.0976C61.2833 19.9526 60.6204 20.3955 61.2209 22.2432ZM55.8371 43.9488C55.8271 45.2747 51.8549 46.3487 46.9556 46.3487C42.0563 46.3487 38.9946 45.359 37.7032 43.9825C39.0611 46.4454 45.5193 46.7802 46.9556 46.7802C51.8607 46.7802 55.8373 45.5151 55.8373 43.9547L55.8371 43.9488ZM42.4075 27.3084C42.6299 27.3417 42.8596 27.3712 43.095 27.398C43.5844 30.0627 42.6985 33.5037 41.3705 36.5636L41.2002 36.4895C41.1498 36.2623 40.9808 36.0983 40.7775 35.9798C41.2083 35.4821 41.5493 34.8945 41.7824 34.2879C42.3049 32.9278 42.309 31.4612 42.0108 30.0499C42.3699 29.1787 42.5493 28.2455 42.4075 27.3084ZM40.7584 38.0178C40.9142 38.1717 41.5668 38.6641 43.6714 38.8486C46.1807 39.0691 46.5035 39.0102 46.5035 39.0102C45.4634 38.8825 41.9841 38.6101 41.9702 37.2058C42.178 37.4488 42.5754 37.7607 43.3334 38.0315C44.8415 38.5704 46.5381 38.5704 46.5381 38.5704C43.1097 37.6892 42.3411 36.8358 42.0896 36.4457C42.3193 36.665 42.7008 36.9195 43.3334 37.1456C44.8415 37.6845 46.5381 37.6845 46.5381 37.6845C43.6842 36.9509 42.6735 36.2369 42.2697 35.793L42.2904 35.7287C42.5243 35.9036 42.8578 36.0896 43.3332 36.2597C44.8414 36.7986 46.5379 36.7986 46.5379 36.7986C46.1615 36.7019 42.3284 35.6044 42.5365 35.0072C42.7435 35.1309 43.0044 35.256 43.333 35.3736C44.8412 35.9125 46.5377 35.9125 46.5377 35.9125C46.1154 35.8039 42.5637 34.9357 42.7946 34.2615C42.9501 34.3385 43.1283 34.4145 43.333 34.4876C44.8412 35.0265 46.5377 35.0265 46.5377 35.0265C46.0699 34.9063 42.8316 34.1786 43.0475 33.4909C43.1364 33.5283 43.2315 33.5654 43.333 33.6017C44.8412 34.1406 46.5377 34.1406 46.5377 34.1406C46.0261 34.0091 43.0847 33.4151 43.2811 32.697L43.333 32.7158C44.8412 33.2547 46.5377 33.2547 46.5377 33.2547C45.9844 33.1125 43.3155 32.6366 43.4844 31.882C44.9523 32.3687 46.5377 32.3687 46.5377 32.3687C45.8633 32.1953 43.5143 31.8748 43.6583 30.9812C45.0748 31.3607 46.5377 31.3071 46.5377 31.3071C45.8552 31.1568 43.6912 30.9639 43.7733 30.0783C45.1529 30.3936 46.5377 30.3112 46.5377 30.3112C45.8994 30.1851 43.8049 30.0352 43.8239 29.22C45.1865 29.5326 46.5377 29.4629 46.5377 29.4629C45.6945 29.2896 43.8688 29.2204 43.8038 28.203C45.173 28.4366 46.5377 28.2824 46.5377 28.2824C45.9654 28.2002 43.8203 28.1138 43.7254 27.4094C44.9519 27.5204 46.0348 27.5768 47.012 27.5859C47.9892 27.5768 49.0721 27.5204 50.2986 27.4094C50.2037 28.1138 48.0586 28.2002 47.4863 28.2824C47.4863 28.2824 48.8508 28.4366 50.2202 28.203C50.1554 29.2202 48.3297 29.2896 47.4863 29.4629C47.4863 29.4629 48.8375 29.5326 50.2003 29.22C50.2193 30.0352 48.1248 30.1851 47.4863 30.3112C47.4863 30.3112 48.8711 30.3936 50.2507 30.0783C50.3328 30.9639 48.1688 31.1567 47.4863 31.3071C47.4863 31.3071 48.9492 31.3607 50.3659 30.9812C50.5099 31.875 48.1607 32.1955 47.4863 32.3687C47.4863 32.3687 49.0719 32.3687 50.5398 31.882C50.7086 32.6366 48.0398 33.1125 47.4863 33.2547C47.4863 33.2547 49.183 33.2547 50.691 32.7158L50.7429 32.697C50.9393 33.4153 47.9979 34.0091 47.4861 34.1406C47.4861 34.1406 49.1828 34.1406 50.6908 33.6017C50.7923 33.5654 50.8874 33.5283 50.9764 33.4909C51.192 34.1786 47.9537 34.9063 47.4861 35.0265C47.4861 35.0265 49.1828 35.0265 50.6908 34.4876C50.8955 34.4145 51.0737 34.3385 51.2292 34.2615C51.4601 34.9357 47.9084 35.8039 47.4861 35.9125C47.4861 35.9125 49.1828 35.9125 50.6908 35.3736C51.0194 35.256 51.2803 35.1309 51.4875 35.0072C51.6956 35.6044 47.8625 36.7017 47.4861 36.7986C47.4861 36.7986 49.1828 36.7986 50.6908 36.2597C51.1662 36.0898 51.4997 35.9038 51.7336 35.7287L51.7545 35.793C51.3505 36.2369 50.34 36.9509 47.4861 37.6845C47.4861 37.6845 49.1828 37.6845 50.6908 37.1456C51.3236 36.9195 51.705 36.665 51.9346 36.4457C51.6829 36.836 50.9143 37.6892 47.486 38.5704C47.486 38.5704 49.1827 38.5704 50.6906 38.0315C51.4486 37.7607 51.846 37.4488 52.0538 37.2058C52.0399 38.6101 48.5606 38.8825 47.5207 39.0102C47.5207 39.0102 47.8435 39.0691 50.3528 38.8486C52.862 38.6284 53.3076 37.971 53.3076 37.971C53.2566 37.8681 53.2062 37.7648 53.156 37.6608C53.3198 37.6965 53.463 37.7383 53.586 37.7848C53.8001 37.9973 53.8409 38.4066 52.2756 38.783C51.1014 39.0653 49.0565 39.2064 47.0118 39.2064C44.9669 39.2064 42.9222 39.0653 41.748 38.783C40.7452 38.5418 40.4015 38.2874 40.3403 38.0797L40.36 38.0759C40.4888 38.0517 40.6249 38.031 40.7584 38.0178ZM39.9569 38.7815C40.1113 38.8804 40.3147 38.9752 40.5668 39.0612C41.4827 39.3738 42.8581 39.6307 43.9504 39.696C44.9395 39.7605 45.9761 39.7929 47.0128 39.7929C48.0494 39.7929 49.086 39.7605 50.0749 39.696C51.1674 39.6307 52.5428 39.3736 53.4585 39.0612C54.6869 38.6421 54.758 38.0172 53.6375 37.7084C53.6375 37.6458 53.6362 37.5818 53.633 37.5167C54.0573 37.7302 54.7599 37.9144 55.8352 38.0596C58.1222 38.3684 61.0479 38.3684 63.3349 38.0596C64.4101 37.9144 65.1126 37.7302 65.5371 37.5167C65.4132 40.1559 67.6903 40.7702 68.5675 41.9866C68.4628 44.0634 62.7156 45.0202 61.3639 45.1846C61.3639 45.1846 63.9358 45.0988 65.975 44.4864C67.5595 44.0105 68.4194 43.5463 68.7518 43.1231C68.0693 44.1949 65.4187 45.1382 60.7706 45.7085C63.6774 45.7378 66.6885 44.9766 68.0793 44.2953C67.0359 44.8805 64.7067 45.7602 59.8323 46.1136C61.447 46.2731 66.2421 45.9253 68.2966 44.6205C67.6083 45.3656 66.0748 45.6618 65.2262 45.827C63.2836 46.2052 60.532 46.345 57.9914 46.2464C57.998 46.2127 58.004 46.1787 58.0096 46.1441C58.5507 46.1574 59.0103 46.146 59.3384 46.1136C58.8795 46.0803 58.4439 46.0423 58.0292 46.0004C58.0399 45.9054 58.0461 45.8078 58.0474 45.7081C58.1653 45.7094 58.2828 45.7096 58.4003 45.7085C58.2815 45.694 58.164 45.6791 58.0478 45.6641C58.0455 44.8541 57.7011 43.9014 56.5579 42.9777C53.9159 40.8426 54.5907 38.4912 54.5925 38.485C54.2156 39.1437 52.1773 39.5329 51.2999 39.6516C49.9918 39.8284 48.5025 39.9168 47.0133 39.9168C45.5242 39.9168 44.0348 39.8284 42.7267 39.6516C42.0966 39.5664 40.8676 39.3416 40.0853 38.9777C40.0415 38.9175 39.9975 38.8507 39.9569 38.7815ZM40.2115 39.3629C40.1942 39.5231 40.1696 39.7107 40.1361 39.9132C40.1017 40.3626 40.0011 40.755 39.8533 41.1033C39.6851 41.6149 39.4529 42.0737 39.1401 42.2992C38.7744 42.5628 38.0045 43.2732 37.3977 44.0397C38.2661 47.9212 55.6341 48.3356 56.6641 43.7491C55.4746 42.7347 53.7655 41.8023 53.8815 39.33C53.392 39.5764 52.5813 39.7887 51.3403 39.9563C50.0206 40.1346 48.5166 40.2238 47.0126 40.2238C45.5086 40.2238 44.0046 40.1346 42.685 39.9563C41.4998 39.7962 40.707 39.5954 40.2115 39.3629ZM36.7669 44.9961L36.7662 44.9975C37.622 46.9892 42.8414 47.8037 46.6932 47.9252C44.333 48.0993 38.3937 47.9109 36.5678 45.9549C36.572 45.9714 36.5769 45.9878 36.5823 46.0038C37.5315 47.1624 40.2829 48.2178 46.3634 48.5115C41.7726 48.6275 38.8154 47.9391 37.2102 47.1527C38.7872 48.4955 43.2183 49.0996 47.0126 49.107C50.8068 49.0996 55.2379 48.4955 56.8151 47.1527C55.2099 47.9391 52.2527 48.6275 47.6617 48.5115C54.097 48.2007 56.8034 47.0368 57.5911 45.8001C55.9412 47.9011 49.7237 48.1187 47.3023 47.9398C51.1582 47.8183 56.4144 46.9871 57.2619 44.9911C56.6013 45.946 54.4335 46.641 52.1905 47.0146C51.6518 47.1261 51.0557 47.2333 50.3939 47.3336C46.7315 47.889 43.4767 47.4352 41.3 46.919C39.2593 46.5291 37.3783 45.8725 36.7669 44.9961ZM36.6769 47.7318L36.3357 48.4737C36.5633 48.7073 37.2059 49.2289 38.7406 49.7166C40.8268 50.3798 44.1439 50.6981 44.1525 50.6986C42.6497 50.8897 39.286 50.2124 38.6477 50.0096C37.6041 49.6778 36.9448 49.3189 36.5423 49.0368C37.959 50.421 42.4859 51.113 47.0126 51.113C51.5392 51.113 56.0661 50.421 57.4828 49.0368C57.0803 49.3191 56.421 49.6778 55.3774 50.0096C54.7392 50.2124 51.3753 50.8897 49.8726 50.6986C49.8813 50.6981 53.1985 50.3796 55.2846 49.7166C57.0989 49.1399 57.6669 48.5158 57.7756 48.3766C57.8258 47.8774 57.5691 47.7025 57.4313 47.6449C57.1931 47.9165 56.302 48.693 53.5802 49.223C51.7849 49.5727 49.3987 49.7474 47.0126 49.7474C44.6263 49.7474 42.2402 49.5727 40.445 49.223C37.973 48.7417 37.011 48.057 36.6769 47.7318ZM36.1016 48.9826L36.0174 49.166L35.8049 49.1743C35.3505 49.192 34.8956 49.2008 34.4408 49.2008C32.0925 49.2012 26.2715 48.8901 24.7107 46.8549L24.6392 46.7614V45.9221C24.5774 45.7764 24.5302 45.6233 24.5101 45.4664C24.4556 45.0413 24.5556 44.6361 24.8464 44.3662C24.145 42.8919 24.6534 41.4569 25.9522 40.4074C26.7146 39.7914 27.3387 38.9905 27.5348 38.0125C27.5991 37.6922 27.6309 37.2051 27.5405 36.8823L27.4521 36.5877C27.5158 36.2965 27.6864 36.0863 28.4515 35.8256C28.0409 34.2583 28.3771 32.6513 29.2556 31.3088C28.8548 31.2471 28.4436 31.2921 28.0652 31.4612C27.8266 31.5676 27.4933 31.7909 27.3583 32.0531C27.4961 32.2884 27.6012 32.5766 27.6456 32.8232C27.7809 33.5793 27.4641 34.2076 26.861 34.6571C26.5728 34.9302 26.2064 35.2163 25.8013 35.2652C25.6721 35.2808 25.552 35.2714 25.4249 35.247C25.3771 35.2378 25.308 35.2184 25.2604 35.2174C25.2403 35.2169 25.2134 35.2427 25.2004 35.2545C24.89 35.5321 24.4059 35.742 23.9843 35.7217C23.7989 35.7246 23.6212 35.6602 23.528 35.487C23.4139 35.2746 23.5067 35.0581 23.622 34.8695C23.6036 34.8085 23.5767 34.7555 23.5317 34.7209C23.2714 34.9936 22.9563 35.2079 22.5524 35.1403C22.2535 35.0907 21.9492 34.9825 21.8123 34.6878C21.7189 34.4867 21.7407 34.2772 21.7634 34.0644C21.7743 33.9608 21.7852 33.857 21.7734 33.7528C21.7732 33.7507 21.7726 33.7486 21.7721 33.7464L21.6831 33.6262C21.6232 33.5624 21.5513 33.4973 21.5269 33.4746C21.0862 33.0621 20.8024 32.7079 20.588 32.1295C20.3053 31.3654 20.7236 30.2752 21.1669 29.6355C21.5923 29.0218 22.2556 28.6104 22.7937 28.0952C23.2392 27.6686 23.7705 27.169 24.1076 26.6493C24.395 26.2064 24.5625 25.6842 24.7263 25.186C24.8859 24.6995 25.2036 23.8053 25.5636 23.3887C25.5693 23.3785 25.5747 23.3684 25.5804 23.358C25.5161 22.6679 25.5415 21.9404 25.8661 21.3144C26.3696 20.344 27.4436 19.9242 28.4705 19.709C28.1772 18.6242 28.3887 16.5464 29.1392 16.1109C29.3255 15.9559 29.5412 15.8158 29.6543 16.349C29.7423 16.8022 30.2505 17.3719 30.581 17.6573C30.941 17.968 31.4229 18.4915 31.6469 18.9967C31.6498 18.9967 31.6524 18.9965 31.655 18.9965C31.7631 18.6765 31.8513 18.3148 31.9329 18.0071C32.0188 17.6828 32.1017 17.3576 32.1837 17.032C32.2106 16.9244 32.2375 16.8167 32.2649 16.7091C32.2726 16.6778 32.2807 16.6468 32.2888 16.616C32.2918 16.6052 32.2946 16.5945 32.2976 16.584C32.3751 16.3205 32.7514 16.2262 32.9218 16.483C32.9972 16.5966 33.0838 16.8189 33.1414 16.9464C33.2683 17.2276 33.3938 17.5094 33.5196 17.7912C33.674 18.1373 33.8276 18.4836 33.9836 18.8287C34.482 18.7749 35.0648 18.9051 35.4853 19.0932C36.2804 19.4487 36.8275 20.0859 37.0826 20.9073C37.565 21.242 38.0551 21.5679 38.5533 21.8785C38.8601 22.0696 39.2196 22.2118 39.548 22.364C40.0912 22.6156 40.6194 22.9109 40.9336 23.3998C41.084 23.4579 41.4393 23.5554 42.2084 23.6065C43.3522 23.6827 45.9957 23.8234 45.9957 23.8234C43.3889 24.0841 42.0738 24.032 41.4248 24.0158C42.1061 24.0702 43.2934 24.1437 44.5986 24.1285C45.3952 24.1191 46.2042 24.1146 47.0129 24.1146C47.8217 24.1146 48.6307 24.1191 49.4272 24.1285C50.7327 24.1437 51.9197 24.0702 52.6012 24.0158C51.9523 24.0318 50.6372 24.0841 48.0304 23.8234C48.0304 23.8234 50.6739 23.6827 51.8177 23.6065C52.9614 23.5303 53.1902 23.3522 53.1902 23.3522L53.2025 23.9613C53.2025 23.9613 53.2047 23.9673 53.2102 23.9782C53.5031 22.9217 54.8337 22.6854 55.6562 22.1729C56.2753 21.7869 56.7085 21.4765 57.0916 21.2092C57.9006 19.0082 59.589 19.0224 60.2425 19.2205C60.2773 19.1485 60.0836 19.5792 60.3455 19.0006C60.6074 18.4219 61.3504 16.7392 61.3932 16.6748C61.3942 16.6733 61.9072 18.7971 62.1351 19.3588C62.2541 19.3392 62.419 19.3332 62.6169 19.3727C62.8474 18.2757 64.5103 17.5692 64.7128 16.4117C65.3597 16.7867 65.5405 19.3206 65.0728 19.9723C67.7672 20.4159 68.2851 21.5952 68.0904 23.429C68.1291 23.5019 68.1607 23.5606 68.1765 23.5898C68.266 23.6853 68.5698 24.0747 68.9702 25.2947C69.1988 25.9906 69.3571 26.4221 69.6276 26.8387C69.9002 27.259 70.2937 27.6769 70.9929 28.3465C71.706 29.0295 72.1713 29.252 72.5744 29.8338C72.9972 30.4438 73.3356 31.4083 73.1132 32.0097C72.8774 32.6464 72.5339 32.9678 72.2627 33.2218C72.076 33.3967 71.9293 33.5338 71.9085 33.7138C71.8919 33.857 71.9062 33.9884 71.9182 34.102C71.9575 34.4698 71.9825 34.7045 71.417 34.7989C71.116 34.849 70.8692 34.6394 70.6122 34.3319C70.3919 34.3398 70.1198 34.4416 70.0349 34.937C70.1721 35.1437 70.3311 35.3867 70.0371 35.3751C69.7028 35.3961 69.2986 35.2126 69.0573 34.9964C68.598 34.5851 68.4528 35.4078 67.3888 34.3917C66.0652 33.4226 67.053 32.099 67.053 32.099C66.8879 31.4108 65.6353 30.5762 64.1969 31.1014C65.1623 32.3494 65.7825 34.1581 65.1414 36.0675C66.3012 36.3148 66.2995 36.9 65.1711 37.2848C64.3776 37.5555 63.1858 37.7782 62.2392 37.8348C60.5253 37.9467 58.6462 37.9467 56.9324 37.8348C55.986 37.7782 54.7941 37.5555 54.0005 37.2848C52.9329 36.9205 52.8742 36.3771 53.8541 36.1101C53.1842 35.4881 51.5853 33.575 52.3775 30.0176C51.9887 29.1143 51.813 28.175 51.9797 27.2514C51.6477 27.3088 51.2963 27.3575 50.9312 27.3989C50.3909 30.3416 51.5274 34.2311 53.0848 37.5086C53.0989 37.0655 53.019 36.7873 53.0184 36.7852C53.3452 37.3561 55.1112 37.6933 55.8715 37.796C58.1386 38.1023 61.033 38.1023 63.3003 37.796C64.0606 37.6933 65.8267 37.3559 66.1532 36.7852C66.1517 36.7905 65.567 38.8281 67.8563 40.678C69.7294 42.1916 69.1276 43.795 68.7271 44.4821C68.9243 44.5682 69.2515 44.8058 69.1723 45.4233C69.1546 45.5617 69.1069 45.706 69.0403 45.8497V46.6446C67.7629 48.3108 62.6216 49.0334 57.9799 48.8177C57.963 48.8606 57.9446 48.9036 57.9248 48.9467V49.8639C56.619 51.5667 51.8162 52.4159 47.0137 52.415C42.211 52.4157 37.4082 51.5667 36.1026 49.8639V48.9826H36.1016ZM40.9546 24.3096C41.0438 24.3329 41.3556 24.3802 42.4481 24.4149C43.9899 24.4639 45.5012 24.4881 47.0128 24.4881C48.5241 24.4881 50.0356 24.4637 51.5774 24.4149C53.0821 24.3672 53.1064 24.2953 53.1064 24.2953C53.1064 24.2953 53.3929 24.6299 53.871 24.8451C54.3489 25.0603 52.3897 25.2514 50.8367 25.2753C49.2838 25.2992 47.7787 25.3231 47.7787 25.3231C47.7787 25.3231 50.0243 25.5621 51.7206 25.4903C53.417 25.4186 54.2293 25.1318 54.2293 25.1318C54.2293 25.1318 54.4681 25.2036 54.4205 25.7055C54.3617 26.3237 50.6872 26.5645 47.0128 26.5306C43.3383 26.5645 39.6636 26.3237 39.605 25.7055C39.5572 25.2038 39.7962 25.1318 39.7962 25.1318C39.7962 25.1318 40.6085 25.4186 42.3049 25.4903C44.001 25.5621 46.2468 25.3231 46.2468 25.3231C46.2468 25.3231 44.7417 25.2992 43.1888 25.2753C41.8029 25.2539 40.0936 25.0994 40.0816 24.9134C40.1769 24.8587 40.2745 24.7973 40.3713 24.733C40.5061 24.6542 40.6189 24.5703 40.7065 24.4973C40.7945 24.4328 40.8781 24.3691 40.9546 24.3096ZM39.4894 26.2683C39.5095 26.2888 39.5302 26.3089 39.5518 26.3286C39.5302 26.3089 39.5095 26.2889 39.4894 26.2683ZM39.5789 26.3527C39.5924 26.3644 39.6061 26.3762 39.6202 26.3877C39.6061 26.3762 39.5924 26.3646 39.5789 26.3527ZM41.0898 23.2499L41.6997 22.8684C43.1206 23.2027 45.0451 23.2817 46.9729 23.2836C48.9272 23.2858 50.8852 23.2074 52.3254 22.8684L52.9355 23.2499C51.6287 23.7495 42.3968 23.7495 41.0898 23.2499ZM47.1812 46.0497C43.3187 45.6312 41.3173 43.0482 41.6532 40.7806C46.9417 41.879 52.3839 40.7781 52.3839 40.7781C52.7261 41.9104 53.6796 43.8901 56.1539 43.8027C56.1539 43.8027 55.0716 43.5057 54.2859 42.1433C53.5004 40.7809 53.6399 39.6281 53.6399 39.6281C53.492 39.7346 53.3 39.8284 53.0756 39.911H53.0758C50.7761 40.5851 42.5929 40.9596 40.3854 39.6281C40.3854 39.6281 40.5251 40.7809 39.7394 42.1433C38.9784 43.4632 37.9387 43.7831 37.8746 43.8017L37.8724 43.8025L37.8716 43.8027C38.8436 44.8803 41.9544 45.6345 43.4708 45.826C45.3826 46.0675 47.1812 46.0497 47.1812 46.0497ZM47.0128 49.4399C49.3785 49.4399 51.7443 49.2667 53.5226 48.9204C54.5019 48.7297 56.2718 48.3881 57.0661 47.5281C55.3073 48.645 51.8083 49.1542 49.3581 49.2676C48.5427 49.3338 47.7593 49.3609 47.0128 49.3579C46.2662 49.3609 45.4828 49.3338 44.6676 49.2676C42.2172 49.1542 38.7182 48.645 36.9596 47.5281C37.7539 48.3879 39.5236 48.7297 40.5031 48.9204C42.2812 49.2665 44.647 49.4399 47.0128 49.4399ZM46.2388 11.2761H39.9746L39.84 10.8888C42.2306 10.8849 44.6216 10.883 47.0126 10.883C49.4035 10.883 51.7945 10.8851 54.1851 10.8888L54.0507 11.2761H47.7866L53.6052 12.558L53.6014 12.5695H47.5563L53.1714 13.8064L53.1707 13.8083H47.5561L52.5238 14.9026H47.5561L52.2533 15.9373H47.5561L51.9271 16.9002H47.5561L51.3317 17.7319H47.5561L50.8521 18.4582H47.5561L50.8404 19.1816H47.0124H43.1843L46.4689 18.4582H43.1727L46.4689 17.7319H42.6933L46.4689 16.9002H42.0977L46.4689 15.9373H41.7715L46.4689 14.9026H41.5012L46.4689 13.8083H40.8542L40.8535 13.8064L46.4689 12.5695H40.4237L40.42 12.5582L46.2388 11.2761ZM43.2631 9.79186C43.0655 7.87931 40.8932 7.04793 40.7255 5.28378C40.7255 5.28378 41.0908 5.99554 41.8599 5.97635C42.6288 5.95716 42.9557 5.4762 43.2249 6.01491C43.494 6.55343 43.5131 7.05376 44.1862 7.57309C44.8592 8.09242 45.5321 8.01549 45.5321 8.01549C45.5321 8.01549 45.7627 7.18825 45.3397 6.26489C44.9167 5.34172 44.4936 5.07218 44.4936 4.62978C44.4936 4.18738 44.9934 4.149 45.3781 4.01452C45.7626 3.87984 46.2487 3.31913 46.3781 2.89855C46.5074 2.47797 46.5162 2.41326 46.5268 2.35608C45.5638 1.92572 46.6178 1.18613 47.0126 0.576888C47.4072 1.18632 48.4613 1.92572 47.4982 2.35608C47.5087 2.41326 47.5177 2.47815 47.6469 2.89855C47.776 3.31894 48.2622 3.87984 48.6467 4.01452C49.0313 4.149 49.531 4.18738 49.531 4.62978C49.531 5.07218 49.108 5.34172 48.685 6.26489C48.262 7.18825 48.4929 8.01549 48.4929 8.01549C48.4929 8.01549 49.1657 8.09242 49.8386 7.57309C50.5118 7.05376 50.531 6.55343 50.8 6.01491C51.069 5.47639 51.3962 5.95716 52.1653 5.97635C52.9342 5.99554 53.2997 5.28378 53.2997 5.28378C53.1352 7.01313 50.7761 8.32585 50.7147 9.78904C52.6377 9.90961 54.1936 10.1468 55.5904 10.5773L52.2454 19.1957C52.8154 19.4364 52.7217 19.9703 52.3824 20.1273C52.3104 20.192 52.2183 20.2274 52.104 20.1894V22.3337L52.2204 22.6566C51.189 23.0099 49.8098 23.0648 48.5134 23.1526C51.0234 22.7823 51.3595 21.7303 51.3262 20.3574H47.0124H42.6985C42.4859 21.649 43.0627 22.7791 45.4969 23.1282C44.2179 23.0791 42.9591 22.9852 41.8044 22.6564L41.9206 22.3335V20.1892C41.8063 20.2274 41.7144 20.192 41.6422 20.1271C41.3028 19.9701 41.2092 19.4363 41.7794 19.1955L38.4347 10.5773C39.8199 10.1502 41.3617 9.91318 43.2631 9.79186ZM58.797 44.3295C69.0935 43.5313 66.1331 41.0074 65.3608 39.8741C64.5885 38.7408 64.743 38.8955 61.2938 39.2045C57.8444 39.5135 55.6307 38.4833 55.6307 38.4833C55.6307 38.4833 56.4287 38.8182 60.2899 38.6895C64.151 38.5607 65.2837 37.9168 65.2837 37.9168C65.2837 37.9168 65.1294 38.5349 65.8242 39.6682C66.5193 40.8012 67.6003 41.4709 67.6003 41.4709C67.6003 41.4709 68.8358 42.7328 65.2065 43.8918C61.5769 45.0505 58.797 44.3295 58.797 44.3295ZM57.1629 36.5761C63.0304 36.8625 63.5004 34.6249 63.5004 34.6249C63.6457 34.8527 63.8812 35.1129 63.9309 35.4172C62.4688 37.4925 57.7891 36.884 57.1629 36.5761ZM57.9455 47.6908C62.3569 47.8823 67.2581 47.2949 68.6576 45.9276C68.3086 46.1721 67.7373 46.483 66.833 46.7706C66.2799 46.9463 63.3654 47.5334 62.0629 47.3676C62.0706 47.3671 64.9449 47.0913 66.7526 46.5165C68.325 46.0167 68.8168 45.4762 68.9112 45.3556C68.9548 44.923 68.7322 44.7712 68.6128 44.7215C68.4066 44.9568 67.6343 45.6298 65.276 46.0892C63.3024 46.4734 60.5048 46.614 57.9284 46.5105C57.8305 46.8587 57.688 47.1521 57.5624 47.3675C57.6784 47.4179 57.8335 47.5142 57.9455 47.6908ZM70.2932 33.9243C69.9224 34.0187 69.8224 34.4071 69.7963 34.6663C69.75 34.6249 69.6985 34.5832 69.6408 34.5416C69.4464 34.4017 69.2193 34.2941 68.9881 34.1842C68.6064 34.0035 68.2114 33.8163 68.0026 33.4909C67.9432 33.3984 67.9268 33.3004 67.9452 33.2086C67.9633 33.1183 68.015 33.0308 68.0928 32.9567C68.1752 32.8787 68.2861 32.8164 68.4179 32.7818C68.6437 32.7224 68.929 32.7444 69.2383 32.9024C69.6639 33.1196 70.0006 33.5421 70.2932 33.9243ZM65.3755 24.2985C65.3792 24.2981 66.6984 24.1119 67.4782 24.5453C67.8689 24.7624 68.036 24.9582 68.1253 25.0962C68.1246 25.0588 68.1199 25.0165 68.1105 24.97C67.8533 23.6823 66.5858 23.4993 66.2989 23.3174C66.3012 23.3174 67.1218 23.3351 67.8328 23.9771C68.1947 24.304 68.3601 24.6446 68.413 24.9096C68.4353 25.0216 68.438 25.1231 68.4267 25.207C68.4134 25.3071 68.3788 25.3876 68.3319 25.4397C68.2949 25.4803 68.2507 25.5067 68.2007 25.5166C68.0304 25.5507 67.9917 25.4818 67.9157 25.3455C67.9157 25.3455 67.7298 25.6758 67.5666 25.9205C67.4034 26.1656 67.2239 26.2634 67.3709 26.4266C67.5177 26.5901 66.9955 26.7206 66.1794 25.8552C65.6248 25.2672 65.3743 24.2829 65.3755 24.2985ZM67.329 24.8141C67.6696 24.9901 67.7134 25.2883 67.504 25.6173C66.8913 26.5801 66.0543 25.2236 65.9098 24.5667C66.3271 24.5551 66.921 24.5874 67.329 24.8141ZM65.4272 25.9863C65.4272 25.9863 66.4715 26.0771 66.9255 27.3265C67.3795 28.5758 66.9936 29.0301 66.9936 29.0301C66.9936 29.0301 67.3795 27.122 65.4272 25.9863ZM58.1506 21.1912C56.5494 23.1052 60.9915 24.9279 56.7011 28.6591C56.7011 28.6591 57.0644 27.116 56.553 26.2848C56.0416 25.4538 56.4252 25.9225 56.0631 26.3915C55.701 26.8604 55.3814 27.3933 56.1057 29.2261C56.8301 31.0589 55.8927 32.2098 55.8927 32.2098C55.8927 32.2098 56.5105 31.0163 55.9354 29.6737C55.3603 28.3311 54.9556 27.3079 55.6797 26.1783C56.4041 25.0488 56.2336 24.857 56.2336 24.857C56.2336 24.857 56.4468 25.4324 56.8726 26.0079C57.2986 26.5833 57.1068 26.9456 57.1068 26.9456C59.5839 24.4283 55.7969 22.6391 58.1506 21.1912ZM71.593 32.4414C71.593 32.4414 71.7552 31.8906 71.492 31.612C71.2287 31.3333 70.6835 31.0457 70.6429 30.6614C70.5062 29.362 72.4281 30.523 71.593 32.4414ZM70.38 29.6096C69.8625 28.7379 72.3097 28.7487 72.0579 31.1266C72.0579 31.1266 72.0376 30.2973 71.512 29.751C70.9865 29.205 70.38 29.6096 70.38 29.6096ZM63.0868 19.5388C63.8527 18.3203 64.7075 18.8242 64.7611 17.1947C65.1613 17.9616 65.2416 19.2294 64.856 19.9259C64.0508 19.7714 63.6914 19.892 63.2174 19.6104C63.1732 19.5843 63.1298 19.5604 63.0868 19.5388ZM62.3105 19.826C62.6609 19.9753 63.2575 20.0225 63.9626 20.0694C65.5276 20.1738 67.1075 20.6658 67.3371 21.9276C66.5585 21.4013 65.0574 21.4073 64.4593 20.2797C65.3708 22.19 66.3395 21.5044 66.9238 22.4971C66.9238 22.4971 65.3779 22.1843 64.9188 21.7671C65.1091 22.2752 64.4629 22.9192 64.3736 23.1694C63.1394 22.7157 64.7216 21.9503 64.1048 20.9149C64.0715 22.6493 62.4201 22.904 61.77 23.2079C61.7679 22.3324 62.0873 21.0527 62.5487 20.6243C62.5487 20.6241 62.4761 20.3007 62.3105 19.826ZM46.0096 2.6907C44.8222 4.19283 41.6188 2.27539 41.093 5.09381C41.2318 5.36241 41.5431 5.57025 41.8493 5.56254C42.2705 5.55201 42.7094 5.26911 43.0881 5.37087C43.3293 5.43558 43.4868 5.61333 43.5949 5.82964C43.8837 6.40728 43.8748 6.8098 44.4388 7.24524C44.631 7.39346 44.9113 7.53171 45.1826 7.58475C45.2031 7.19558 45.1068 6.74942 44.9637 6.43718C44.822 6.12777 44.6586 5.86086 44.4699 5.57966C44.3185 5.35451 44.1627 5.12936 44.1044 4.85925C44.0882 4.78364 44.0801 4.7069 44.0801 4.6294C44.0801 4.4351 44.1373 4.25283 44.2599 4.10085C44.514 3.78523 44.8893 3.74667 45.2418 3.62347C45.6137 3.4933 45.8975 3.05203 46.0096 2.6907ZM48.0157 2.6907C48.1278 3.05203 48.4117 3.4933 48.7835 3.62365C49.1358 3.74686 49.5111 3.78542 49.7653 4.10104C49.8878 4.25321 49.945 4.43529 49.945 4.62959C49.945 4.7069 49.9369 4.78383 49.9205 4.85944C49.8625 5.12955 49.7066 5.35451 49.5553 5.57985C49.3665 5.86105 49.2033 6.12795 49.0614 6.43737C48.9183 6.74961 48.8221 7.19558 48.8426 7.58494C49.1138 7.5319 49.3941 7.39365 49.5863 7.24543C50.1503 6.80999 50.1414 6.40765 50.4302 5.82982C50.5383 5.61351 50.696 5.43576 50.9371 5.37106C51.3157 5.2693 51.7545 5.5522 52.1756 5.56273C52.482 5.57025 52.7934 5.36241 52.9321 5.094C52.4063 2.27539 49.2031 4.19283 48.0157 2.6907ZM47.0128 3.48484C44.7927 5.30692 45.7481 7.5018 47.0128 6.89294C48.2772 7.5018 49.2327 5.30692 47.0128 3.48484ZM74.7084 67.8883H79.3645C85.53 67.8883 86.3401 63.2965 86.3215 59.2037C86.3031 55.111 86.3031 57.1866 86.3031 56.1146V49.4999C81.8779 49.334 78.4264 47.4564 74.9992 43.0992C75.3816 43.8634 77.6511 48.1763 83.2526 50.042C75.7158 51.5814 62.4579 52.4569 48.3754 52.8604C63.6586 52.8196 77.9435 52.1949 84.9581 50.5756V59.4155C84.934 61.0542 85.4433 66.7381 79.1175 66.7381H72.1912C72.4215 66.4533 72.6441 66.1646 72.8573 65.8717H70.7338C66.0226 72.7449 57.1649 77.3756 47.0129 77.3756C36.9918 77.3756 28.1428 73.6212 22.8314 67.8887H21.6367C27.4724 74.2675 36.6677 78.3825 47.0129 78.3825C58.3749 78.3821 68.4487 74.2523 74.7084 67.8883ZM19.3172 67.8883C25.5768 74.2523 35.6504 78.3821 47.0128 78.3821C57.3582 78.3821 66.5533 74.2671 72.389 67.8883H71.1943C65.8829 73.6209 57.0339 77.3752 47.0128 77.3752C36.8608 77.3752 28.0031 72.7445 23.2919 65.8713H21.1684C21.3816 66.1644 21.6042 66.4531 21.8345 66.7377H14.908C8.58198 66.7377 9.09146 61.0538 9.0674 59.4151V50.5752C16.0821 52.1946 30.3669 52.8192 45.6501 52.86C31.5678 52.4566 18.3097 51.581 10.7729 50.0416C16.3746 48.1759 18.6437 43.8631 19.0261 43.0988C15.5991 47.4561 12.1474 49.3334 7.72226 49.4995V56.1143C7.72226 57.1862 7.72226 55.1108 7.70365 59.2034C7.68522 63.2961 8.49513 67.8879 14.6606 67.8879H19.3172V67.8883ZM20.507 18.3034C19.7127 17.9157 19.0464 17.7737 18.1583 17.73C17.8833 17.708 17.6077 17.7011 17.3324 17.7088C17.2527 17.7092 17.1732 17.7122 17.0941 17.7184V17.7189L17.0764 17.7199C14.2893 17.8892 11.9827 19.4859 10.4253 21.7453C7.60626 25.8356 9.18377 30.1289 11.7334 33.853C8.78822 31.6534 3.42401 31.8669 1.62598 35.4766C1.23344 36.2648 1.07101 37.1661 1.16576 38.0417C1.44155 40.5876 4.29991 42.5424 6.73112 41.8188C8.85552 41.1868 9.78104 39.4966 9.76995 38.0697C10.9703 38.6408 11.5883 39.9599 11.5638 41.4389C11.4838 46.2468 6.20754 47.3915 2.36219 47.9536C4.56367 47.9208 9.80567 51.4096 16.0194 45.2625C18.7968 42.9722 20.4613 40.2144 19.7302 36.5477C19.4805 35.294 18.9992 34.122 18.4826 32.959C18.1185 32.1393 17.5819 31.0658 17.4398 30.1859C17.3903 29.3239 17.7829 28.7626 18.5332 28.3721C18.3614 28.3153 18.185 28.2724 18.0057 28.2468H18.0053C16.9628 28.0982 16.1142 28.5799 15.4415 29.3502L15.3838 29.416L15.4105 29.3329C15.6688 28.5305 15.5667 27.8449 15.2458 27.0844C15.023 26.557 14.6318 25.9141 14.6111 25.3396C14.6019 25.0855 14.661 24.8521 14.7817 24.6286C14.9074 24.3958 15.0949 24.2169 15.3274 24.0918C15.5722 23.9603 15.851 23.8956 16.126 23.8699L16.5244 23.8324C15.3205 22.4785 13.4173 22.6542 12.1846 23.8825L12.1732 23.8939L12.148 23.8736L12.1568 23.8599C12.9069 22.701 14.102 21.6539 15.5197 21.4895C16.2215 21.4081 16.8961 21.5574 17.5125 21.8982L17.53 21.908L17.5186 21.9244C16.5453 23.3118 16.3872 25.1611 17.4659 26.54C18.2924 27.5966 19.5749 27.9905 20.8766 27.7918C21.6077 27.6801 22.287 27.2864 22.8222 26.7863C23.4191 26.2286 23.8765 25.5059 24.1222 24.7262C24.3894 23.8794 24.4014 22.9905 24.1309 22.1422C23.5549 20.3363 22.2193 19.0326 20.507 18.3034ZM16.03 65.2636C15.7346 65.2636 15.3675 65.2521 15.0825 65.169C14.7194 65.0631 14.3532 64.9297 13.9964 64.8039C13.657 64.6843 13.1921 64.5345 12.8295 64.5345C12.3942 64.5345 12.0382 64.695 11.7706 65.0411L11.7609 65.0535H11.226V60.6526H11.8468L11.8541 60.6743C12.129 61.4656 12.4896 62.2503 12.981 62.932C13.366 63.466 13.8368 63.9603 14.4136 64.2874C14.9148 64.572 15.4553 64.7266 16.0328 64.7266C16.7154 64.7266 17.3244 64.521 17.8393 64.0696C18.3475 63.6242 18.589 63.0595 18.589 62.385C18.589 61.8435 18.4713 61.2982 18.0935 60.8904C17.7637 60.5347 17.3663 60.2828 16.9038 60.138C16.3125 59.9531 15.6737 59.8342 15.0631 59.7338C14.5493 59.6493 13.9293 59.5517 13.4371 59.3824C12.9714 59.2222 12.5328 58.9936 12.1585 58.6707C11.8098 58.3701 11.5413 58.0061 11.3601 57.5829C11.1747 57.1501 11.0865 56.6936 11.0865 56.2228C11.0865 55.7663 11.1653 55.323 11.3277 54.8962C11.4864 54.4788 11.7129 54.0994 12.01 53.7663C12.3095 53.4305 12.6751 53.1755 13.0848 52.9913C13.5301 52.791 14.0075 52.7056 14.4944 52.7056C14.9484 52.7056 15.4201 52.7758 15.8647 52.8638C16.2225 52.9347 16.6682 53.0237 17.0331 53.0237C17.3347 53.0237 17.6216 52.9514 17.8901 52.8143L17.8968 52.8107H18.5836L18.9547 56.3923H18.302L18.2929 56.3752C17.8406 55.5242 17.2659 54.6385 16.5453 53.9897C15.9394 53.4443 15.2278 53.1726 14.4128 53.1726C14.0129 53.1726 13.6343 53.2642 13.2825 53.4546C12.9364 53.6421 12.6573 53.9015 12.4463 54.2339C12.2348 54.5672 12.1307 54.9325 12.1307 55.3275C12.1307 55.8385 12.2884 56.2894 12.6984 56.6086C13.1669 56.9733 13.8311 57.1691 14.4047 57.2848C15.0841 57.4219 15.7649 57.5558 16.4473 57.6785C16.923 57.7639 17.4482 57.8874 17.884 58.1011C18.5099 58.4079 19.0321 58.8441 19.4068 59.434C19.7798 60.021 19.9483 60.6696 19.9483 61.3644C19.9483 62.0496 19.7817 62.6948 19.4486 63.2931C19.1122 63.8976 18.64 64.372 18.0467 64.7255C17.427 65.0939 16.7483 65.2636 16.03 65.2636ZM17.9297 55.0536C17.8244 54.9315 17.7165 54.7763 17.63 54.6582C17.4627 54.4299 17.2849 54.2057 17.0912 53.999C16.9506 53.8488 16.7951 53.7151 16.6289 53.5953C16.7953 53.6295 16.9657 53.651 17.1347 53.651C17.3189 53.651 17.4988 53.6207 17.6746 53.5673L17.9297 55.0536ZM11.5706 62.438C11.6674 62.6686 11.7755 62.8994 11.9009 63.1129C11.9949 63.2728 12.0974 63.4406 12.2126 63.5862C12.3299 63.7346 12.4514 63.8803 12.5742 64.0246C12.383 64.0207 12.1476 64.0318 11.9827 64.1055C11.8265 64.1755 11.6834 64.3224 11.5706 64.4614V62.438ZM11.5054 55.5551C11.5063 55.6271 11.5061 55.6991 11.5061 55.7708C11.5061 56.4506 11.715 57.0568 12.1429 57.5848C12.6168 58.1696 13.2842 58.5036 14.0018 58.6893C14.1107 58.7175 14.2491 58.7352 14.3609 58.7553C14.6948 58.8155 15.0287 58.8751 15.3626 58.9348C16.049 59.0574 16.788 59.2077 17.4443 59.4466C17.9339 59.6249 18.3623 59.9036 18.7109 60.2922C19.0961 60.7217 19.2185 61.2914 19.2185 61.8542C19.2185 62.4303 19.0331 62.931 18.6796 63.364C18.8325 63.0145 18.9333 62.6393 18.9333 62.2567C18.9333 61.7203 18.7909 61.2265 18.4693 60.7939C18.141 60.3521 17.6949 60.0539 17.1805 59.867C16.7194 59.6817 16.0572 59.5764 15.5658 59.4951C14.9774 59.3978 14.3765 59.2965 13.7956 59.1601C13.4012 59.0674 13.0316 58.9112 12.696 58.6837C12.4354 58.5068 12.216 58.283 12.0305 58.0293C11.8389 57.7672 11.6864 57.4829 11.5832 57.1748C11.4858 56.8838 11.4304 56.5824 11.4304 56.2751C11.4307 56.042 11.4621 55.7947 11.5054 55.5551ZM25.7624 55.0218V62.6457C25.7624 62.856 25.7862 63.1154 25.8981 63.298C25.9966 63.4592 26.156 63.5493 26.3346 63.5971C26.6181 63.6729 26.9342 63.6932 27.2267 63.7037L27.2731 63.7054V64.173H22.449V63.7048L22.496 63.7037C22.7871 63.697 23.1029 63.683 23.386 63.6129C23.5716 63.5672 23.7243 63.4729 23.8293 63.311C23.9579 63.1122 23.9805 62.7973 23.9805 62.5652V55.0216C23.5763 55.0278 23.1636 55.0641 22.7715 55.1646C22.4632 55.2438 22.1513 55.3574 21.883 55.5315C21.666 55.6726 21.4602 55.8349 21.287 56.0281C21.0449 56.2982 20.8138 56.5781 20.5835 56.8584L20.569 56.8759H20.0772L20.5698 54.5516H29.2216L29.7284 56.8759H29.1556L29.1417 56.8525C28.8649 56.3894 28.5107 55.9091 28.068 55.5929C27.7597 55.3728 27.3978 55.1749 27.0197 55.1151C26.6055 55.0493 26.1812 55.0297 25.7624 55.0218ZM64.2732 59.4586V62.3807C64.2732 62.6258 64.2813 62.8981 64.3432 63.1359C64.3823 63.2875 64.4546 63.4225 64.5847 63.5143C64.7271 63.6149 64.9318 63.6533 65.1025 63.6693C65.423 63.699 65.746 63.7037 66.0677 63.7037C66.5149 63.7037 66.9629 63.6415 67.3818 63.481C67.7856 63.3262 68.1526 63.0997 68.4825 62.821C68.8975 62.4702 69.2704 62.063 69.619 61.6473L69.6335 61.6298H70.2642L69.3883 64.173H61.0015V63.7048L61.0485 63.7037C61.3378 63.697 61.6722 63.6834 61.9505 63.6018C62.115 63.5536 62.2748 63.4684 62.3675 63.3187C62.469 63.1543 62.4917 62.9297 62.4917 62.7401V56.065C62.4917 55.8635 62.4752 55.5797 62.3757 55.4018C62.2928 55.2537 62.1556 55.1727 61.9952 55.1298C61.7012 55.0508 61.3513 55.0361 61.0471 55.0207L61.0015 55.0184V54.5512H69.0556L69.9098 56.8042H69.331L69.3165 56.786C69.046 56.4453 68.7239 56.1515 68.3703 55.8987C67.9879 55.6252 67.564 55.417 67.1205 55.262C66.6503 55.098 66.16 55.0205 65.6624 55.0205C65.3813 55.0205 65.0179 55.0374 64.7575 55.148C64.5943 55.2174 64.4422 55.3224 64.371 55.4911C64.2933 55.6741 64.2734 55.8949 64.2734 56.0923V58.9889H65.5794C66.655 58.9889 67.3111 58.5403 67.3254 57.4097L67.3262 57.3623H67.8937V61.0322H67.3854L67.3811 60.9889C67.3406 60.5838 67.2316 60.1154 66.9323 59.8201C66.6392 59.531 66.1985 59.4582 65.8032 59.4582H64.2732V59.4586ZM56.563 55.0218V62.6457C56.563 62.856 56.5868 63.1154 56.6985 63.298C56.7974 63.4592 56.9566 63.5493 57.1352 63.5971C57.4187 63.6729 57.735 63.6932 58.0275 63.7037L58.0737 63.7054V64.173H53.2497V63.7048L53.2965 63.7037C53.5877 63.697 53.9035 63.683 54.1866 63.6129C54.372 63.5672 54.5249 63.4729 54.6298 63.311C54.7585 63.1122 54.7811 62.7973 54.7811 62.5652V55.0216C54.3769 55.0278 53.9641 55.0641 53.5721 55.1646C53.2638 55.2438 52.9519 55.3574 52.6838 55.5315C52.4668 55.6726 52.2608 55.8349 52.0876 56.0281C51.8455 56.2982 51.6144 56.5781 51.3841 56.8584L51.3698 56.8759H50.878L51.3702 54.5516H60.022L60.529 56.8759H59.9562L59.9423 56.8525C59.6655 56.3894 59.3113 55.9091 58.8686 55.5929C58.5603 55.3728 58.1984 55.1749 57.8203 55.1151C57.4058 55.0493 56.9816 55.0297 56.563 55.0218ZM46.5352 60.5785H43.4065L42.9715 61.696C42.8564 61.9821 42.7999 62.2823 42.7999 62.5904C42.7999 62.8795 42.8914 63.1347 43.0768 63.3571C43.2734 63.5929 43.5396 63.6911 43.841 63.7039L43.8871 63.7056V64.1732H40.6681V63.7103L40.7089 63.7043C41.5743 63.5749 42.0715 62.6683 42.3594 61.9304L44.684 55.9726C44.5985 55.8276 44.4787 55.6638 44.3294 55.582C44.1649 55.492 43.9386 55.4552 43.7534 55.4356L43.7105 55.4309V55.0216L45.3749 54.4551H46.032L49.1691 62.458C49.2827 62.7473 49.4639 63.1458 49.6978 63.3542C49.91 63.5437 50.2249 63.645 50.4983 63.705L50.5359 63.7133V64.1732H46.4326V63.7088L46.4756 63.7041C46.7195 63.6781 47.0143 63.6413 47.2406 63.5461C47.4062 63.4765 47.4715 63.346 47.4715 63.1712C47.4715 62.9472 47.3701 62.6826 47.279 62.479L46.5352 60.5785ZM36.4366 59.6728C36.822 60.0686 37.1758 60.4959 37.5218 60.9257L38.1888 61.7152C38.2339 61.766 38.2794 61.816 38.3241 61.8666C38.3952 61.9437 38.4646 62.0227 38.5353 62.1011C38.7154 62.3178 38.896 62.534 39.0825 62.7452C39.2209 62.9021 39.3651 63.054 39.5189 63.1957C39.6492 63.3157 39.7889 63.4263 39.9393 63.5192C40.0763 63.6001 40.2224 63.6614 40.375 63.7056L40.4098 63.7158V64.1732H39.0927C38.7977 64.1732 38.5176 64.1059 38.2538 63.9746C37.9747 63.8356 37.7254 63.6409 37.5045 63.422C37.2123 63.1325 36.9459 62.8167 36.6921 62.4935L35.7476 61.2905C35.44 60.89 35.1295 60.4794 34.777 60.1171C34.6523 59.989 34.4453 59.8045 34.2564 59.8045H33.5559V62.6182C33.5559 62.8272 33.5747 63.0742 33.6601 63.267C33.7392 63.4455 33.9233 63.5388 34.1017 63.5905C34.2538 63.6347 34.4134 63.6584 34.5705 63.6766C34.7068 63.6924 34.8518 63.7105 34.9886 63.7041L35.039 63.7017V64.1734H30.2633V63.7048L30.3103 63.7041C30.6152 63.6977 30.9767 63.6868 31.2698 63.6022C31.4403 63.5531 31.5941 63.4637 31.6753 63.2997C31.774 63.1009 31.7878 62.7969 31.7878 62.5768V56.2749C31.7878 56.0319 31.7765 55.7179 31.6896 55.4902C31.6219 55.3124 31.4793 55.208 31.3042 55.1475C31.013 55.0466 30.618 55.0307 30.3099 55.0211L30.2633 55.0196V54.5516H35.6359C36.2452 54.5516 36.8589 54.6473 37.4155 54.9041C37.8763 55.1166 38.2862 55.4178 38.5685 55.8451C38.8231 56.2303 38.9588 56.6533 38.9588 57.1161C38.9588 57.4181 38.8981 57.7116 38.78 57.9896C38.6577 58.2779 38.4828 58.5351 38.2632 58.7581C38.0271 58.998 37.7491 59.1911 37.4494 59.3433C37.1313 59.5043 36.7867 59.6091 36.4366 59.6728ZM28.805 55.8791C28.6217 55.6905 28.4271 55.5114 28.2165 55.3538C28.0313 55.215 27.8242 55.1066 27.6095 55.0209H28.5637L28.805 55.8791ZM24.2977 55.0275C24.4091 55.0474 24.4949 55.1018 24.5445 55.2095C24.618 55.3694 24.6298 55.6 24.6298 55.7746V62.4083C24.6298 62.7076 24.6191 63.1468 24.5003 63.4216C24.3997 63.6537 24.1484 63.7037 23.9201 63.7037H23.9149C24.0348 63.6018 24.1335 63.4797 24.1927 63.3317C24.277 63.1206 24.2975 62.8712 24.2975 62.6457V55.0275H24.2977ZM21.6649 55.0209C21.4585 55.1328 21.2494 55.259 21.0725 55.411C20.8982 55.5603 20.7424 55.7388 20.5982 55.9194L20.8056 55.0209H21.6649ZM68.6422 63.7037H67.6931C67.9486 63.5651 68.2026 63.422 68.4453 63.2619C68.6482 63.1282 68.8341 62.9611 69.0063 62.7877L68.6422 63.7037ZM66.4952 59.1891C66.7811 59.0849 67.0556 58.9285 67.2446 58.6869V59.6841C67.1635 59.5709 67.0654 59.4693 66.9479 59.3933C66.8105 59.3042 66.6525 59.2393 66.4952 59.1891ZM68.3553 55.0209L68.7519 55.7819C68.5363 55.6248 68.3148 55.4757 68.0868 55.3371C67.8808 55.2122 67.6625 55.1083 67.438 55.0207H68.3553V55.0209ZM62.4784 55.0991C62.6468 55.1172 62.8431 55.1618 62.9623 55.275C63.1227 55.4268 63.1409 55.7898 63.1409 55.9982V62.5304C63.1409 62.8026 63.1206 63.1957 62.9837 63.4351C62.879 63.6178 62.6523 63.6776 62.4523 63.6962C62.55 63.6091 62.6295 63.5066 62.6884 63.3885C62.792 63.1812 62.8085 62.8754 62.8085 62.6457V56.1203C62.8085 55.894 62.7959 55.588 62.7004 55.3813C62.6489 55.2695 62.5724 55.1757 62.4784 55.0991ZM59.6054 55.8791C59.4221 55.6905 59.2275 55.5114 59.0169 55.3538C58.8317 55.215 58.6246 55.1066 58.4099 55.0209H59.3642L59.6054 55.8791ZM55.0981 55.0275C55.2096 55.0474 55.2955 55.1018 55.3451 55.2095C55.4186 55.3694 55.4305 55.6 55.4305 55.7746V62.4083C55.4305 62.7076 55.4199 63.1468 55.3007 63.4216C55.2002 63.6537 54.949 63.7037 54.7206 63.7037H54.7155C54.8352 63.6018 54.9341 63.4797 54.9932 63.3317C55.0778 63.1206 55.0981 62.8712 55.0981 62.6457V55.0275ZM52.4653 55.0209C52.2589 55.1328 52.0498 55.259 51.8729 55.411C51.6985 55.5603 51.5428 55.7388 51.3988 55.9194L51.6062 55.0209H52.4653ZM43.6053 60.0539L44.9605 56.5926L46.329 60.0539H43.6053ZM44.4943 55.3111C44.5437 55.3077 44.5936 55.3068 44.6428 55.3068C44.8256 55.3068 44.9981 55.3525 45.1292 55.4858C45.2856 55.6453 45.4031 55.9141 45.4824 56.1216L47.8915 62.2304C47.9962 62.5073 48.13 62.8885 48.13 63.1851C48.13 63.329 48.0765 63.449 47.974 63.5495C47.8518 63.6693 47.6852 63.7039 47.5192 63.7039H47.5125C47.5801 63.6503 47.6501 63.5907 47.7035 63.5271C47.7723 63.4417 47.7884 63.3187 47.7884 63.2128C47.7884 62.9365 47.6679 62.6032 47.5638 62.3489L45.1735 56.2412C45.0893 56.0262 44.9901 55.8032 44.8545 55.6154C44.7601 55.4847 44.6349 55.3858 44.4943 55.3111ZM42.2618 62.906C42.2618 62.9115 42.2618 62.9169 42.2618 62.9224C42.2618 63.234 42.381 63.4936 42.6023 63.7039H41.582C41.732 63.585 41.8738 63.4522 41.9928 63.3027C42.092 63.1774 42.1804 63.0435 42.2618 62.906ZM31.7716 63.6913C32.0196 63.4931 32.1049 63.197 32.1049 62.8808V56.2194C32.1049 55.9612 32.0991 55.6058 32.0098 55.364C31.9543 55.2139 31.8423 55.1029 31.7105 55.0196C31.8521 55.0254 32.0098 55.0498 32.126 55.1221C32.2604 55.2056 32.3333 55.3337 32.367 55.4857C32.4213 55.7311 32.4236 56.0099 32.4236 56.2608V63.0698C32.4234 63.4914 32.1369 63.6484 31.7716 63.6913ZM33.5557 59.335V56.3415C33.5557 56.0866 33.5649 55.7866 33.639 55.5419C33.6922 55.3653 33.802 55.2385 33.9652 55.1537C34.1814 55.0412 34.4876 55.0209 34.7283 55.0209C35.0033 55.0209 35.2893 55.0316 35.5594 55.0869C35.782 55.1324 35.9884 55.2265 36.1749 55.3559C36.7944 55.7851 37.011 56.4421 37.011 57.1712C37.011 57.7283 36.8965 58.3244 36.4733 58.7213C36.2593 58.9299 35.9561 59.0653 35.6758 59.1576C35.3276 59.2728 34.9663 59.335 34.5991 59.335H33.5557ZM35.2534 59.8043C35.3436 59.8615 35.4333 59.9305 35.5021 60.0127C35.559 60.0808 35.6134 60.1512 35.6662 60.2226C36.0057 60.5887 36.3283 60.9677 36.6342 61.3595C36.9344 61.744 37.2388 62.125 37.5468 62.5033C37.8051 62.8202 38.0777 63.1291 38.3783 63.4067C38.5652 63.5794 38.7693 63.7344 38.9891 63.8628C38.8551 63.8467 38.7221 63.8202 38.5926 63.7816C38.3554 63.7112 38.1194 63.5472 37.9271 63.3937C37.6152 63.1447 37.3411 62.8368 37.0969 62.5217C36.7707 62.1012 36.4468 61.6791 36.1202 61.259C35.8595 60.9235 35.5948 60.5904 35.3146 60.2708C35.1712 60.1072 35.0191 59.945 34.852 59.8043H35.2534ZM36.2471 59.2244C36.5208 59.0785 36.7724 58.8898 36.9634 58.6428C37.2599 58.2593 37.3281 57.7089 37.3281 57.238C37.3281 56.7628 37.2629 56.2399 37.0222 55.8222C36.8559 55.5332 36.6267 55.3015 36.3518 55.1202C36.7147 55.2184 37.0275 55.405 37.2653 55.7078C37.5881 56.1186 37.688 56.6458 37.688 57.1573C37.688 57.6926 37.5735 58.2309 37.2138 58.6441C36.9544 58.9425 36.6197 59.1238 36.2471 59.2244ZM82.1443 52.7669L82.2926 56.5935H81.7785L81.7694 56.5755C81.522 56.0714 81.2303 55.5887 80.884 55.1461C80.5864 54.7658 80.2502 54.4086 79.8667 54.1135C79.5326 53.8567 79.1653 53.6502 78.7656 53.515C78.3796 53.3844 77.9792 53.3212 77.5722 53.3212C76.7948 53.3212 76.1014 53.5596 75.4904 54.0405C74.8281 54.5619 74.3765 55.2673 74.0695 56.0452C73.701 56.9782 73.5646 57.9886 73.5646 58.9874C73.5646 59.996 73.7208 61.0015 74.1214 61.9319C74.4583 62.7138 74.9392 63.4201 75.6241 63.937C76.2311 64.395 76.9123 64.648 77.6742 64.648C78.0959 64.648 78.5037 64.5695 78.8878 64.3942C79.2156 64.2449 79.5227 64.0353 79.7323 63.7366C79.88 63.5358 79.9816 63.3129 80.0267 63.0676C80.0812 62.7734 80.0932 62.4593 80.0932 62.1606C80.0932 61.8057 80.093 61.3025 80.0039 60.9583C79.9458 60.7341 79.8054 60.5808 79.5916 60.4929C79.2717 60.3616 78.7669 60.3141 78.4234 60.2853L78.3939 60.2828V59.734H82.2738V62.0594V62.1081V64.0321L82.2565 64.0412C81.7647 64.2962 81.2523 64.5099 80.7275 64.6875C80.1882 64.8697 79.636 65.0144 79.0762 65.1174C78.5315 65.2175 77.9805 65.2724 77.4263 65.2724C76.4998 65.2724 75.5797 65.134 74.7153 64.7919C73.9445 64.4868 73.2536 64.0446 72.681 63.4426C72.1296 62.8631 71.7158 62.1931 71.4383 61.4428C71.1553 60.678 71.0166 59.8824 71.0166 59.0664C71.0166 58.2523 71.1565 57.4561 71.4323 56.6904C71.7054 55.9328 72.1014 55.24 72.6306 54.633C73.1568 54.0296 73.7855 53.5584 74.5096 53.2165C75.2705 52.8572 76.0856 52.6973 76.9251 52.6973C77.6045 52.6973 78.2978 52.8002 78.9607 52.943C79.2698 53.0096 79.5807 53.0745 79.8924 53.1284C80.0451 53.1548 80.2363 53.1903 80.391 53.1903C80.7774 53.1903 81.2235 53.1143 81.4666 52.7805L81.4762 52.7673H82.1443V52.7669ZM81.257 54.9917C80.8289 54.4748 80.3367 53.9847 79.7751 53.6132C79.8007 53.6196 79.8265 53.626 79.852 53.6325C79.9661 53.6619 80.0833 53.6875 80.2006 53.7006C80.3138 53.7168 80.4296 53.724 80.545 53.724C80.7415 53.724 80.9624 53.6551 81.1487 53.5833L81.257 54.9917ZM79.871 60.3C80.1117 60.334 80.3905 60.4023 80.5715 60.5471C80.7509 60.6902 80.8467 60.8866 80.8864 61.1106C80.9522 61.484 80.9499 61.942 80.9499 62.321C80.9499 62.679 80.9195 63.0826 80.7947 63.421C80.6909 63.7018 80.5168 63.9268 80.2752 64.103C80.0389 64.2755 79.7372 64.3871 79.4454 64.4629C79.7402 64.2738 79.9906 64.031 80.1596 63.7156C80.3344 63.3892 80.4375 63.0424 80.4375 62.6709V61.5453C80.4375 61.2833 80.4074 60.966 80.2664 60.7378C80.1622 60.5691 80.0242 60.4247 79.871 60.3ZM75.8924 64.8276C75.5948 64.7514 75.2972 64.6675 75.0086 64.568C74.6662 64.4501 74.3387 64.2927 74.0263 64.1098C73.6663 63.8995 73.3391 63.6368 73.0447 63.3422C72.4884 62.7856 72.0897 62.1132 71.8073 61.3819C71.5157 60.6272 71.3606 59.8402 71.3606 59.0312C71.3606 58.4085 71.4509 57.796 71.633 57.2003C71.8162 56.6031 72.081 56.0375 72.4223 55.5142C72.7481 55.0143 73.1361 54.5531 73.5907 54.1652C74.0067 53.8101 74.4681 53.5195 74.9778 53.319C75.1953 53.2334 75.4318 53.1687 75.6658 53.1162C75.4075 53.2372 75.1517 53.3658 74.9037 53.5058C74.569 53.6944 74.2585 53.9418 73.9791 54.2045C73.3074 54.8365 72.7945 55.5931 72.424 56.4372C72.0651 57.2547 71.8558 58.1182 71.8558 59.0136C71.8558 59.7772 72.019 60.5196 72.3012 61.2273C72.5962 61.9667 73.0169 62.6335 73.5608 63.2147C73.9191 63.5974 74.3235 63.9567 74.7711 64.2319C75.1298 64.4529 75.5092 64.6483 75.8924 64.8276ZM73.5183 18.3034C74.3126 17.9157 74.9791 17.7737 75.867 17.73C76.142 17.708 76.4176 17.7011 76.6929 17.7088C76.7726 17.7092 76.8521 17.7122 76.9314 17.7184V17.7189L76.9493 17.7199C79.7364 17.8892 82.043 19.4859 83.6002 21.7453C86.4192 25.8356 84.8419 30.1289 82.2921 33.853C85.2371 31.6534 90.6015 31.8669 92.3995 35.4766C92.7921 36.2648 92.9545 37.1661 92.8597 38.0417C92.584 40.5876 89.7256 42.5424 87.2944 41.8188C85.1702 41.1868 84.2447 39.4966 84.2557 38.0697C83.0554 38.6408 82.4374 39.9599 82.4618 41.4389C82.5419 46.2468 87.8181 47.3915 91.6635 47.9536C89.462 47.9208 84.22 51.4096 78.0062 45.2625C75.2291 42.9722 73.5646 40.2144 74.2953 36.5477C74.5452 35.294 75.0263 34.122 75.5429 32.959C75.9068 32.1393 76.4436 31.0658 76.5857 30.1859C76.6352 29.3239 76.2426 28.7626 75.4923 28.3721C75.6641 28.3153 75.8407 28.2724 76.0198 28.2468H76.0202C77.0629 28.0982 77.9113 28.5799 78.584 29.3502L78.6415 29.416L78.6146 29.3329C78.3563 28.5305 78.4584 27.8449 78.7793 27.0844C79.0021 26.557 79.3933 25.9141 79.414 25.3396C79.4232 25.0855 79.3642 24.8521 79.2437 24.6286C79.1181 24.3958 78.9305 24.2169 78.6979 24.0918C78.4531 23.9603 78.1743 23.8956 77.8995 23.8699L77.5011 23.8324C78.7048 22.4785 80.6082 22.6542 81.8407 23.8825L81.8522 23.8939L81.8775 23.8736L81.8685 23.8599C81.1184 22.701 79.9233 21.6539 78.5058 21.4895C77.804 21.4081 77.1294 21.5574 76.513 21.8982L76.4955 21.908L76.5069 21.9244C77.4802 23.3118 77.6383 25.1611 76.5598 26.54C75.7333 27.5966 74.4506 27.9905 73.1489 27.7918C72.4178 27.6801 71.7383 27.2864 71.2033 26.7863C70.6064 26.2286 70.149 25.5059 69.9033 24.7262C69.6361 23.8794 69.6241 22.9905 69.8944 22.1422C70.4706 20.3363 71.806 19.0326 73.5183 18.3034ZM53.2991 6.60271C53.6055 6.26827 53.6364 5.78318 53.7501 5.5095C60.7757 7.13709 66.9658 11.3346 71.0365 17.016C78.1976 12.9887 91.2174 19.9419 84.3264 31.9651C89.1522 22.2035 79.2867 13.1202 70.772 19.0418C66.7383 12.7566 60.8294 8.18835 53.2991 6.60271ZM53.0789 6.92209C52.8345 7.44744 52.1602 7.79241 51.8336 8.38999C55.5299 8.47632 61.5615 10.5384 66.626 14.6158C66.626 14.6158 62.522 9.46157 53.0789 6.92209ZM91.8961 36.5311C92.0897 37.714 91.788 38.8953 90.9478 39.7767C90.252 40.5065 89.2033 40.9711 88.1885 40.7719C87.5578 40.6481 87.0472 40.2844 86.6843 39.7583L86.6604 39.7236L86.7018 39.73C86.8028 39.746 86.9052 39.7528 87.0073 39.7504C87.9464 39.7287 88.6903 38.9496 88.6687 38.0099C88.6634 37.7755 88.6106 37.5449 88.5113 37.3324L88.5106 37.3307C88.3825 37.0568 88.1836 36.8213 87.9347 36.6487C86.8114 35.7821 85.32 35.8615 84.2482 36.3116C82.0994 37.2141 80.7627 40.0178 81.3365 42.5466C82.0101 45.5153 85.2008 47.979 89.4618 47.9206C85.0884 48.5745 80.4467 45.7457 79.7999 41.8162C79.4491 39.6838 80.2072 37.4708 82.0913 36.3236C82.6389 35.99 83.2355 35.7479 83.8545 35.585C85.0982 35.1875 86.4817 35.2013 87.6358 35.86C88.4767 36.34 89.1853 37.1943 89.1962 38.202C89.2065 39.1752 88.5615 39.8965 87.7552 40.3496C88.0468 40.376 88.3338 40.3231 88.5952 40.1862C89.1766 39.8813 89.5169 39.2374 89.6243 38.6096C89.7487 37.8805 89.5786 37.1078 89.1276 36.5176C87.3658 34.211 84.113 34.7197 81.9255 36.052C79.5604 37.4923 78.7041 40.7582 79.727 43.2619C81.0345 46.4627 85.0483 48.3264 87.4839 48.3222C85.0455 48.8169 77.7829 45.7724 79.1215 39.531C79.6659 36.9914 81.738 35.1791 84.2116 34.5333C86.2587 33.999 88.5908 34.5412 89.7072 36.464C90.189 37.2936 90.4864 38.2324 90.1676 39.1755C90.0664 39.4742 89.9151 39.7413 89.7363 39.9994C89.6337 40.1476 89.5058 40.3035 89.4056 40.4593C90.058 39.88 90.4537 39.1167 90.4881 38.2332C90.5146 37.5555 90.3217 36.8879 89.9828 36.3043C88.7944 34.2574 86.319 33.6538 84.1326 34.2247C82.1048 34.7542 80.3028 36.1137 79.2831 37.9514C76.892 42.2607 80.2775 46.9576 84.1578 48.1266C80.836 47.4694 74.1675 41.2083 81.094 35.0169C84.0174 32.421 89.9984 31.6972 91.984 35.6826C92.3375 36.3923 92.4837 37.2037 92.3984 37.9922C92.2655 39.2207 91.5616 40.2432 90.4861 40.8394C89.6006 41.3302 88.5303 41.4859 87.5465 41.2367C86.4352 40.9551 85.5932 40.2093 85.0905 39.1883L85.0844 39.1759L85.095 39.1667C85.1978 39.0781 85.3027 38.9916 85.4087 38.9069L85.4302 38.8898L85.4373 38.9162C85.5629 39.3736 85.8011 39.7806 86.134 40.1177C86.8274 40.8204 87.8518 41.1483 88.8258 41.0994C89.8867 41.0461 90.8591 40.558 91.4776 39.6836C92.1218 38.7721 92.3422 37.5688 91.8961 36.5311ZM76.8547 33.736C77.383 32.4498 77.969 31.3263 77.5851 29.8718C77.4808 29.4764 77.2922 29.1213 76.9916 28.841L76.9798 28.8299L76.9995 28.8038L77.0134 28.8124C78.2191 29.5539 78.8255 31.8411 78.6853 33.2867C78.7283 33.0925 78.7558 32.8935 78.772 32.6975C78.8385 31.8955 78.7235 31.0098 78.4373 30.2551C78.2873 29.8597 78.0824 29.4785 77.81 29.1538L77.7994 29.1412L77.822 29.1179L77.8346 29.1281C78.0215 29.2759 78.1963 29.4394 78.361 29.6113C79.7161 31.0252 79.9804 32.9597 79.2089 34.7508L79.06 34.9458L79.1106 34.8211C79.7338 33.2842 79.6076 31.6485 78.64 30.321C79.6345 32.1761 79.1254 34.3701 78.1764 36.1502C78.016 36.3846 77.8617 36.6233 77.7177 36.868C77.6577 36.9697 77.5996 37.0726 77.5417 37.18L77.5426 37.1783C76.412 39.2841 76.3686 41.4383 77.8342 43.4107L77.8369 43.4141L77.8376 43.4184C77.8538 43.5141 77.8713 43.6097 77.8904 43.7049L77.9028 43.7664L77.8596 43.7209C77.4913 43.3315 77.1384 42.8705 76.9262 42.375C76.6374 41.7013 76.4729 41.0473 76.4628 40.3103C76.4498 39.3414 76.6844 38.1935 77.0076 37.2848C77.4496 36.0432 78.0828 34.8219 78.2136 33.4975C78.176 33.7208 78.1252 33.9418 78.0638 34.1605C77.7852 35.1537 77.3003 36.0857 76.9083 37.0369C76.4716 38.0972 76.1747 39.1225 76.1902 40.2812C76.2005 41.061 76.3731 41.7511 76.6786 42.4644C76.9608 43.1238 77.4703 43.7361 77.9918 44.2216L78.0153 44.2432L78.0166 44.2483C78.0286 44.2936 78.0405 44.3393 78.0532 44.3845L78.0696 44.442L78.0241 44.4033C77.7453 44.1646 77.4855 43.9039 77.252 43.6206C75.1073 41.0181 75.9349 37.611 77.0264 34.7662C77.3193 34.0025 77.6551 33.2377 77.8948 32.4564C78.0876 31.8285 78.2313 31.1311 78.0861 30.478C77.995 30.0687 77.8009 29.7198 77.527 29.4145C77.6979 29.7063 77.8079 30.0239 77.8628 30.361C77.9395 30.8331 77.9057 31.319 77.8147 31.7868C77.7049 32.3513 77.5111 32.9011 77.2915 33.4315C77.1249 33.8329 76.9266 34.2309 76.7718 34.6342C75.9924 36.6654 75.3304 38.7869 75.776 40.9841L75.7794 41.0006L75.747 41.0097L75.7414 40.9939C75.6232 40.6658 75.5293 40.3293 75.4613 39.9874C75.2718 39.035 75.259 38.0438 75.4581 37.0918C75.5049 36.8685 75.5953 36.5093 75.7025 36.2275C75.3423 36.8665 75.1768 37.6234 75.1242 38.3462C75.0868 38.8577 75.0936 39.507 75.1945 40.0137C75.2829 40.4568 75.4122 40.8906 75.5799 41.31L75.5865 41.3258L75.5555 41.3403L75.5474 41.3253C75.4034 41.0604 75.281 40.7838 75.1785 40.5001C74.8358 39.5515 74.7864 38.2136 74.933 37.1467C74.7307 38.0257 74.723 39.1364 74.8443 39.9595L74.8467 39.9761L74.814 39.9834L74.8091 39.9676C74.755 39.7906 74.7068 39.6117 74.664 39.43C74.3639 37.4349 75.0701 35.4827 75.81 33.6645C76.1302 32.8777 76.4887 32.0648 76.7199 31.2479C76.8899 30.6475 77.0161 29.9386 76.7837 29.3376C76.7324 29.205 76.6647 29.0803 76.5816 28.9648L76.5722 28.9516L76.5961 28.93L76.6083 28.9403C76.8944 29.1896 77.0497 29.5125 77.0497 29.8944C77.0495 30.1889 77.0222 30.4791 76.9711 30.769C76.8929 31.2116 76.7624 31.6442 76.6295 32.0727C76.4874 32.5318 76.3447 32.9872 76.2184 33.4499C76.2815 33.3096 76.3473 33.1689 76.4077 33.0275C76.6055 32.5642 76.7908 32.0924 76.9516 31.615C77.1129 31.1371 77.289 30.5538 77.3185 30.0493L77.3264 29.916L77.3543 30.0465C77.4383 30.4408 77.4407 30.8542 77.4029 31.2541C77.3531 31.7815 77.2332 32.3012 77.0967 32.8123C77.0236 33.0863 76.9076 33.4384 76.8547 33.736ZM79.4531 23.8082C81.4322 24.7563 82.1509 26.437 82.2186 28.598C82.3075 31.4392 80.7535 33.4529 79.1098 35.5743C77.6022 37.5195 76.3941 40.1841 77.697 42.5526L77.7374 42.6261C76.2815 37.0563 80.6495 35.7763 82.2212 31.6869C82.5792 30.7553 82.8277 29.7843 82.9309 28.7868C82.9277 27.8357 82.7961 26.8641 82.4641 25.9709C82.1951 25.2473 81.7809 24.5477 81.1928 24.0382C80.7296 23.6368 80.1622 23.3627 79.5437 23.3362C79.1138 23.3178 78.6985 23.4214 78.3215 23.6274L78.2815 23.6492L78.3257 23.6605C78.4903 23.703 78.6503 23.7623 78.8002 23.8428C79.0897 23.9985 79.3215 24.2216 79.4781 24.5116C79.6274 24.7881 79.6935 25.0998 79.6975 25.4126C79.7028 25.8211 79.6039 26.2353 79.4454 26.6104C78.9286 27.6028 78.7898 28.4808 79.0807 29.5626C79.2589 30.2252 79.545 30.8518 79.7169 31.5193C79.934 32.3627 79.9409 33.1424 79.7379 33.9914L79.7172 34.078L79.7701 34.0061C79.8691 33.8714 79.9671 33.736 80.0633 33.5993C80.2278 33.0165 80.2822 32.4233 80.2487 31.8259C80.2378 31.4061 80.1818 30.9958 80.0947 30.5848C80.0447 30.3478 79.9596 30.0695 79.9329 29.8336C79.8547 29.1437 79.9336 28.5397 80.1491 27.884C80.3062 27.4066 80.5403 26.9164 80.6236 26.4219C80.7225 25.8324 80.5706 25.3289 80.285 24.8472C81.2539 26.1571 80.7642 27.0936 80.4807 28.648C80.3775 29.2131 80.3337 29.7661 80.3555 30.3398C80.3718 30.7647 80.4262 31.1843 80.4484 31.6079C80.4805 32.2207 80.4151 32.7348 80.2143 33.3175L80.1699 33.4465L80.2463 33.3335C81.2498 31.8481 81.8486 30.3857 81.7916 28.5617C81.7538 27.3551 81.5245 26.0758 80.8152 25.0705C80.413 24.5013 79.9868 24.1798 79.4531 23.8082ZM74.8031 26.5088C74.6495 26.4594 74.4796 26.4236 74.3288 26.3794C74.0556 26.2993 73.798 26.1977 73.5548 26.0482C72.778 25.57 72.3809 24.7443 72.1647 23.886C71.904 22.85 72.0653 21.804 72.6462 20.9055C73.0652 20.2575 73.6691 19.7389 74.3577 19.3951C75.9307 18.6101 77.806 18.5949 79.4275 19.2448C81.2049 19.9569 82.5229 21.3706 83.4223 23.0315C84.038 24.1685 84.324 25.5524 84.389 26.8376C84.4026 27.1019 84.4065 27.3667 84.4014 27.6316L84.4009 27.6494L84.3653 27.6491L84.3652 27.6312C84.3543 26.2525 84.0474 24.8773 83.4708 23.6249C82.8487 22.2739 81.8922 21.029 80.6629 20.1785C79.9718 19.7005 79.1959 19.3505 78.3678 19.1953C77.8177 19.0922 77.2546 19.0781 76.7006 19.1584C75.9349 19.2694 75.1548 19.5341 74.4874 19.9266C73.1322 20.7234 72.3497 21.9731 72.5589 23.5892C72.6505 24.2976 73.0509 24.952 73.6091 25.391C74.0581 25.744 74.705 26.0141 75.2761 25.8211C75.4671 25.7566 75.6299 25.6449 75.7627 25.4956C74.977 25.6393 74.1928 25.4875 73.6243 24.892C72.9848 24.2223 72.8315 23.2164 73.0511 22.3404C73.3346 21.2096 74.1716 20.3782 75.2259 19.9287C75.7126 19.687 76.2302 19.5179 76.7684 19.4398C77.2943 19.3635 77.8284 19.3761 78.3505 19.4739C79.1371 19.6212 79.874 19.9552 80.5303 20.4093C81.7119 21.2265 82.6299 22.4247 83.2278 23.7229C83.8955 25.1734 84.1871 26.7865 84.0668 28.3791C84.0066 29.1755 83.8435 29.96 83.5827 30.718L83.5498 30.7778L83.5201 30.7658L83.524 30.7504C84.0159 28.8905 83.9675 26.848 83.371 25.0174C82.8367 23.3784 81.8219 21.8177 80.294 20.9538C79.0004 20.2225 77.5684 20.1222 76.1445 20.4949C74.9569 20.8058 73.5412 21.665 73.3737 23.0018C73.326 23.2704 73.3525 23.5493 73.4408 23.8082L73.441 23.8087C73.5119 24.0154 73.6215 24.2064 73.7623 24.3732C74.2814 24.9877 75.2191 25.2059 75.8553 24.6457C75.9198 24.5889 75.9783 24.5261 76.0302 24.4578L76.0552 24.4249L76.0621 24.4657C76.1732 25.096 76.0586 25.722 75.625 26.2086C75.055 26.8489 74.1348 27.0359 73.317 26.8948C72.2852 26.7169 71.439 26.0627 70.8726 25.2033C71.2373 26.1535 72.0938 26.8732 73.0664 27.1478C75.4139 27.8108 77.4195 25.2986 76.3058 23.1681L76.2921 23.1419L76.3214 23.1415C76.4393 23.1404 76.557 23.1414 76.6746 23.1446L76.6872 23.1451L76.6912 23.1572C77.1351 24.543 76.8431 26.0111 75.6117 26.8781C74.2987 27.8025 72.5982 27.5635 71.4509 26.4913C70.9136 25.9891 70.5019 25.3387 70.2808 24.6371C70.0403 23.8749 70.0311 23.0751 70.2744 22.3124C71.0636 19.4171 73.8783 18.0773 76.7126 18.2033C78.4817 18.2819 80.2662 18.9978 81.6361 20.1128C83.2834 21.4534 84.2725 23.2926 84.5291 25.3993L84.5313 25.4167L84.4967 25.4218L84.4936 25.4045C84.3373 24.5459 84.0721 23.6834 83.6555 22.9143C82.7194 21.1855 81.3463 19.7218 79.4973 18.9811C77.8085 18.3043 75.8542 18.3184 74.2154 19.1361C72.4183 20.0329 71.3992 21.9353 71.9006 23.927C72.0534 24.5346 72.3486 25.1103 72.7802 25.5672C73.3215 26.1396 74.0205 26.4699 74.8031 26.5088ZM80.0197 32.3654C80.0402 31.9173 79.9974 31.4864 79.8808 31.0368C79.7937 30.7009 79.6261 30.2961 79.6012 29.9576C79.5364 29.0688 79.6779 28.3098 79.9473 27.4698C80.1147 26.9482 80.3861 26.2901 80.3457 25.739C80.3141 25.3078 80.1028 24.9634 79.814 24.6629C80.043 25.078 80.1526 25.5001 80.0665 25.984C79.972 26.5154 79.6631 27.0564 79.4798 27.5701C79.2049 28.3401 79.1609 29.0504 79.3162 29.855C79.3894 30.2324 79.6106 30.6904 79.7402 31.0636C79.887 31.4888 79.9932 31.9209 80.0197 32.3654ZM40.7262 6.60271C33.1959 8.18835 27.2872 12.7566 23.2533 19.0416C14.7386 13.12 4.87312 22.2033 9.69908 31.9649C2.80831 19.9417 15.8279 12.9887 22.989 17.0158C27.0597 11.3344 33.2498 7.1369 40.2754 5.50931C40.3891 5.78318 40.4198 6.26846 40.7262 6.60271ZM40.9466 6.92209C31.5035 9.46157 27.3995 14.6158 27.3995 14.6158C32.464 10.5384 38.4956 8.47614 42.1919 8.38999C41.8653 7.79241 41.1908 7.44744 40.9466 6.92209ZM2.12926 36.5311C1.93562 37.714 2.23736 38.8953 3.07772 39.7767C3.77351 40.5065 4.82217 40.9711 5.83699 40.7719C6.46773 40.6481 6.97834 40.2844 7.34118 39.7583L7.36506 39.7236L7.3237 39.73C7.22274 39.746 7.12028 39.7528 7.01801 39.7504C6.07895 39.7287 5.33522 38.9496 5.35684 38.0099C5.36211 37.7755 5.41475 37.5449 5.5142 37.3324L5.51495 37.3307C5.64298 37.0568 5.84188 36.8213 6.09079 36.6487C7.2139 35.7821 8.70569 35.8615 9.77728 36.3116C11.9261 37.2141 13.2628 40.0178 12.6892 42.5466C12.0154 45.5153 8.82488 47.979 4.56386 47.9206C8.9373 48.5745 13.579 45.7457 14.2257 41.8162C14.5765 39.6838 13.8183 37.4708 11.9344 36.3236C11.3866 35.99 10.7902 35.7479 10.171 35.585C8.92753 35.1875 7.54385 35.2013 6.3899 35.86C5.54879 36.34 4.84041 37.1943 4.8295 38.202C4.81916 39.1752 5.46419 39.8965 6.27033 40.3496C5.97893 40.376 5.69167 40.3231 5.43054 40.1862C4.84887 39.8813 4.50877 39.2374 4.40143 38.6096C4.27697 37.8805 4.44711 37.1078 4.89812 36.5176C6.65968 34.211 9.91246 34.7197 12.1002 36.052C14.4653 37.4923 15.3216 40.7582 14.2987 43.2619C12.9911 46.4627 8.97735 48.3264 6.54199 48.3222C8.98017 48.8169 16.243 45.7724 14.9044 39.531C14.36 36.9914 12.2878 35.1791 9.81432 34.5333C7.76738 33.999 5.43505 34.5412 4.31889 36.464C3.83705 37.2936 3.53982 38.2324 3.85867 39.1755C3.95963 39.4742 4.11097 39.7413 4.28975 39.9994C4.3924 40.1476 4.52024 40.3035 4.62045 40.4593C3.96809 39.88 3.57235 39.1167 3.53794 38.2332C3.51162 37.5555 3.70451 36.8879 4.04347 36.3043C5.23182 34.2574 7.70722 33.6538 9.89366 34.2247C11.9214 34.7542 13.7236 36.1137 14.7433 37.9514C17.1345 42.2607 13.749 46.9576 9.86865 48.1266C13.1902 47.4694 19.859 41.2083 12.9325 35.0169C10.0091 32.421 4.02806 31.6972 2.04221 35.6826C1.68877 36.3923 1.54251 37.2037 1.62786 37.9922C1.76078 39.2207 2.46465 40.2432 3.5402 40.8394C4.42568 41.3302 5.49577 41.4859 6.47976 41.2367C7.59085 40.9551 8.43308 40.2093 8.93561 39.1883L8.94181 39.1759L8.93128 39.1667C8.82845 39.0781 8.72355 38.9916 8.61751 38.9069L8.59589 38.8898L8.58875 38.9162C8.46298 39.3736 8.22478 39.7806 7.89202 40.1177C7.19868 40.8204 6.17427 41.1483 5.20024 41.0994C4.13935 41.0461 3.16702 40.558 2.5485 39.6836C1.90347 38.7721 1.68313 37.5688 2.12926 36.5311ZM17.1708 33.736C17.1179 33.4384 17.0017 33.0863 16.9288 32.8132C16.7923 32.3022 16.6722 31.7825 16.6226 31.255C16.5848 30.855 16.587 30.4417 16.6711 30.0475L16.6987 29.9169L16.7066 30.0503C16.7361 30.5548 16.9123 31.138 17.0736 31.616C17.2343 32.0934 17.4199 32.5651 17.6174 33.0284C17.6776 33.1698 17.7434 33.3105 17.8068 33.4509C17.6804 32.9881 17.5377 32.5328 17.3956 32.0736C17.2627 31.6451 17.1322 31.2125 17.054 30.7699C17.0029 30.4801 16.9756 30.1898 16.9754 29.8953C16.9754 29.5135 17.1307 29.1905 17.4169 28.9413L17.4291 28.9309L17.4528 28.9526L17.4434 28.9657C17.3603 29.0812 17.2926 29.2059 17.2413 29.3385C17.0089 29.9395 17.135 30.6484 17.305 31.2488C17.5362 32.0657 17.8946 32.8785 18.2147 33.6655C18.9547 35.4836 19.661 37.4358 19.3608 39.431C19.3179 39.6127 19.2698 39.7915 19.2156 39.9685L19.2107 39.9843L19.178 39.977L19.1805 39.9605C19.3019 39.1374 19.294 38.0267 19.0919 37.1477C19.2386 38.2146 19.1891 39.5525 18.8464 40.501C18.7439 40.7847 18.6216 41.0612 18.4776 41.3262L18.4695 41.3413L18.4386 41.3268L18.4452 41.311C18.6129 40.8915 18.7423 40.4578 18.8306 40.0146C18.9314 39.5077 18.9382 38.8586 18.9009 38.3472C18.8481 37.6245 18.6827 36.8676 18.3226 36.2285C18.4296 36.51 18.52 36.8695 18.567 37.0928C18.7663 38.0447 18.7533 39.036 18.5638 39.9883C18.4958 40.3304 18.402 40.6668 18.2839 40.9948L18.2781 41.0106L18.2457 41.0016L18.2491 40.985C18.6945 38.7879 18.0324 36.6663 17.2531 34.6351C17.0984 34.2316 16.9 33.8336 16.7337 33.4324C16.5139 32.9022 16.3202 32.3524 16.2105 31.7877C16.1195 31.3199 16.0854 30.8341 16.1623 30.362C16.217 30.0249 16.327 29.7072 16.4981 29.4155C16.224 29.7207 16.03 30.0697 15.9388 30.479C15.7937 31.132 15.9373 31.8295 16.1302 32.4573C16.3701 33.2387 16.7056 34.0035 16.9987 34.7671C18.0901 37.6119 18.9178 41.0191 16.773 43.6215C16.5395 43.9048 16.2796 44.1655 16.0008 44.4042L15.9555 44.443L15.9717 44.3854C15.9847 44.3403 15.9963 44.2947 16.0084 44.2492L16.0097 44.2441L16.0332 44.2225C16.5547 43.737 17.0642 43.1248 17.3465 42.4653C17.652 41.7521 17.8246 41.0619 17.835 40.2821C17.8504 39.1234 17.5535 38.0981 17.1168 37.0378C16.7246 36.0866 16.24 35.1544 15.9614 34.1615C15.8999 33.9427 15.8491 33.7217 15.8115 33.4984C15.9424 34.8226 16.5756 36.0439 17.0175 37.2857C17.3407 38.1944 17.5753 39.3426 17.5624 40.3113C17.5524 41.0482 17.3877 41.702 17.0989 42.376C16.8869 42.8714 16.534 43.3324 16.1657 43.7218L16.1227 43.7673L16.1349 43.7058C16.1541 43.6106 16.1714 43.5151 16.1875 43.4193L16.1883 43.415L16.1909 43.4116C17.6566 41.4393 17.6129 39.285 16.4825 37.1793L16.4834 37.181C16.4255 37.0736 16.3674 36.9707 16.3075 36.8689C16.1635 36.6242 16.0091 36.3855 15.8487 36.1512C14.8995 34.371 14.3906 32.1769 15.3851 30.3219C14.4175 31.6495 14.2915 33.2851 14.9146 34.8221L14.9653 34.9468L14.8164 34.7517C14.0449 32.9605 14.3092 31.0261 15.6643 29.6122C15.829 29.4403 16.0038 29.2768 16.1907 29.129L16.2033 29.1188L16.2261 29.1422L16.2155 29.1548C15.9431 29.4794 15.7382 29.8607 15.5882 30.2561C15.3019 31.0109 15.187 31.8964 15.2533 32.6985C15.2695 32.8945 15.297 33.0935 15.3402 33.2876C15.2 31.8423 15.8066 29.5548 17.0121 28.8134L17.026 28.8047L17.0457 28.8309L17.0337 28.842C16.7333 29.122 16.5447 29.4772 16.4404 29.8727C16.0565 31.3263 16.6423 32.4498 17.1708 33.736ZM14.5722 23.8082C12.5931 24.7563 11.8744 26.437 11.8067 28.598C11.7176 31.4392 13.2716 33.4529 14.9155 35.5743C16.4229 37.5195 17.6314 40.1841 16.3283 42.5526L16.2879 42.6261C17.7438 37.0563 13.3756 35.7763 11.8041 31.6869C11.4462 30.7553 11.1976 29.7843 11.0944 28.7868C11.0974 27.8357 11.2292 26.8641 11.5612 25.9709C11.8301 25.2473 12.2444 24.5477 12.8323 24.0382C13.2955 23.6368 13.8627 23.3627 14.4814 23.3362C14.9116 23.3178 15.3267 23.4214 15.7036 23.6274L15.7437 23.6492L15.6995 23.6605C15.5348 23.703 15.3748 23.7623 15.2251 23.8428C14.9354 23.9985 14.7036 24.2216 14.5472 24.5116C14.3979 24.7881 14.3318 25.0998 14.3278 25.4126C14.3224 25.8211 14.4216 26.2353 14.5799 26.6104C15.0966 27.6028 15.2355 28.4808 14.9447 29.5626C14.7662 30.2252 14.4803 30.8518 14.3083 31.5193C14.0911 32.3627 14.0842 33.1424 14.2872 33.9914L14.3079 34.078L14.2553 34.0061C14.1562 33.8714 14.058 33.736 13.962 33.5993C13.7973 33.0165 13.743 32.4233 13.7766 31.8259C13.7875 31.4061 13.8433 30.9958 13.9304 30.5848C13.9806 30.3478 14.0656 30.0695 14.0923 29.8336C14.1707 29.1437 14.0917 28.5397 13.8761 27.884C13.7189 27.4066 13.4848 26.9164 13.4016 26.4219C13.3027 25.8324 13.4546 25.3289 13.7401 24.8472C12.7712 26.1571 13.2607 27.0936 13.5444 28.648C13.6476 29.2131 13.6913 29.7661 13.6694 30.3398C13.6533 30.7647 13.5988 31.1843 13.5766 31.6079C13.5446 32.2207 13.6099 32.7348 13.8106 33.3175L13.8552 33.4465L13.7787 33.3335C12.7753 31.8481 12.1764 30.3857 12.2333 28.5617C12.2711 27.3551 12.5003 26.0758 13.2098 25.0705C13.6123 24.5013 14.0385 24.1798 14.5722 23.8082ZM19.2222 26.5088C20.005 26.4699 20.704 26.1396 21.2443 25.5678C21.6758 25.1111 21.971 24.5351 22.124 23.9276C22.6254 21.9359 21.6062 20.0335 19.8092 19.1366C18.1704 18.319 16.2163 18.3049 14.5271 18.9816C12.6781 19.7224 11.3052 21.1859 10.3689 22.9149C9.9525 23.684 9.68723 24.5464 9.53082 25.4051L9.52762 25.4224L9.49284 25.4173L9.4951 25.3998C9.75172 23.2932 10.7408 21.4541 12.388 20.1134C13.7582 18.9984 15.5425 18.2825 17.3118 18.2039C20.146 18.0778 22.9608 19.4178 23.75 22.313C23.9931 23.0755 23.9841 23.8755 23.7436 24.6377C23.5223 25.3392 23.1108 25.9897 22.5735 26.4919C21.4261 27.564 19.7257 27.8031 18.4127 26.8786C17.1813 26.0115 16.8895 24.5436 17.3332 23.1577L17.3371 23.1457L17.3497 23.1451C17.4674 23.1417 17.5853 23.1408 17.7032 23.1421L17.7325 23.1425L17.719 23.1686C16.6053 25.2992 18.6108 27.8114 20.9584 27.1483C21.9311 26.8737 22.7874 26.1541 23.1522 25.2038C22.5857 26.0634 21.7397 26.7174 20.7078 26.8954C19.89 27.0364 18.9699 26.8495 18.3997 26.2092C17.9664 25.7224 17.8515 25.0966 17.9626 24.4663L17.9696 24.4255L17.9944 24.4584C18.0465 24.5267 18.1049 24.5897 18.1692 24.6463C18.8056 25.2065 19.7432 24.9881 20.2622 24.3738C20.4032 24.2069 20.5126 24.016 20.5837 23.8093V23.8087C20.6721 23.5499 20.6984 23.2711 20.6508 23.0024C20.4833 21.6656 19.0679 20.8062 17.8803 20.4954C16.4562 20.1226 15.0244 20.2231 13.7307 20.9544C12.2029 21.8181 11.1878 23.3789 10.6536 25.018C10.0568 26.8485 10.0087 28.8911 10.5005 30.7509L10.5047 30.7664L10.475 30.7784L10.4421 30.7186C10.1811 29.9606 10.0181 29.176 9.95795 28.3796C9.83744 26.787 10.129 25.1739 10.797 23.7235C11.3948 22.4253 12.3128 21.2269 13.4944 20.4098C14.1507 19.9558 14.8877 19.6217 15.6743 19.4744C16.1964 19.3766 16.7307 19.364 17.2565 19.4404C17.7949 19.5183 18.3123 19.6874 18.799 19.9293C19.8533 20.3788 20.6903 21.2102 20.9738 22.341C21.1936 23.217 21.0404 24.2231 20.4008 24.8925C19.8323 25.4878 19.0481 25.6398 18.2625 25.4961C18.395 25.6457 18.5578 25.7572 18.7488 25.8217C19.3202 26.0147 19.9669 25.7446 20.4158 25.3915C20.974 24.9525 21.3744 24.2981 21.466 23.5898C21.6751 21.9737 20.8926 20.724 19.5375 19.9272C18.8701 19.5346 18.0901 19.27 17.3244 19.159C16.7703 19.0787 16.2073 19.0928 15.6572 19.1959C14.8292 19.3511 14.0533 19.7009 13.3623 20.179C12.1329 21.0296 11.1764 22.2744 10.5543 23.6255C9.97769 24.8779 9.67069 26.253 9.65997 27.6318L9.65979 27.6496L9.62425 27.65L9.62388 27.6321C9.6188 27.3673 9.62294 27.1025 9.63628 26.8382C9.70133 25.5529 9.98728 24.1691 10.603 23.0321C11.5024 21.3712 12.8204 19.9575 14.5976 19.2453C16.2191 18.5955 18.0944 18.6109 19.6676 19.3956C20.3562 19.7395 20.9601 20.2579 21.3791 20.906C21.9601 21.8046 22.1214 22.8504 21.8606 23.8866C21.6444 24.7451 21.2474 25.5708 20.4704 26.0487C20.2271 26.1983 19.9695 26.2999 19.6965 26.38C19.5458 26.4236 19.3758 26.4594 19.2222 26.5088ZM14.0056 32.3654C13.9851 31.9173 14.028 31.4864 14.1447 31.0368C14.2318 30.7009 14.3995 30.2961 14.4243 29.9576C14.4891 29.0688 14.3476 28.3098 14.0782 27.4698C13.9108 26.9482 13.6392 26.2901 13.6798 25.739C13.7114 25.3078 13.9225 24.9634 14.2115 24.6629C13.9825 25.078 13.8729 25.5001 13.959 25.984C14.0535 26.5154 14.3624 27.0564 14.5457 27.5701C14.8206 28.3401 14.8648 29.0504 14.7093 29.855C14.6363 30.2324 14.4149 30.6904 14.2855 31.0636C14.1383 31.4888 14.0323 31.9209 14.0056 32.3654ZM91.6394 48.3836C91.6394 48.3836 89.4184 49.0504 88.197 49.2447C86.9753 49.4391 86.9753 49.4391 86.9753 49.4391L86.9475 60.5221C86.9475 60.5221 88.3357 51.6058 91.6394 48.3836Z" fill="black"/>
</svg>
