<svg width="14" height="11" viewBox="0 0 14 11" fill="none" xmlns="http://www.w3.org/2000/svg">
<path d="M13.05 4.96723L8.30587 0.0650722C8.26229 0.0236266 8.20279 7.17707e-08 8.14046 7.04084e-08L5.56343 1.40858e-08C5.46879 1.20173e-08 5.38305 0.0543765 5.34696 0.137706C5.31087 0.221036 5.33104 0.31642 5.39757 0.380594L9.9763 5.12501L4.98756 9.86941C4.92055 9.93314 4.90041 10.0289 4.93696 10.1123C4.97351 10.1956 5.05879 10.25 5.15343 10.25L7.73046 10.25C7.79277 10.25 7.85229 10.2264 7.89633 10.1849L13.0505 5.28275C13.1418 5.19541 13.1418 5.05459 13.05 4.96723Z" fill="white"/>
<path d="M10.9521 4.91797L-0.00015138 4.91797" stroke="white" stroke-width="2.5"/>
</svg>
