<svg width="17" height="17" viewBox="0 0 17 17" fill="none" xmlns="http://www.w3.org/2000/svg">
<path fill-rule="evenodd" clip-rule="evenodd" d="M4.8644 6.3086C4.8644 3.65843 7.03136 1.5 9.71688 1.5C12.4024 1.5 14.5693 3.65843 14.5693 6.3086C14.5693 8.95877 12.4024 11.1172 9.71688 11.1172C7.03136 11.1172 4.8644 8.95877 4.8644 6.3086ZM9.71688 0C6.21407 0 3.3644 2.81891 3.3644 6.3086C3.3644 7.79535 3.88165 9.16034 4.74628 10.2375L0.220532 14.7278C-0.0735106 15.0195 -0.0735106 15.4925 0.220532 15.7843C0.514574 16.076 0.991311 16.076 1.28535 15.7843L5.81668 11.2884C6.89389 12.1215 8.24795 12.6172 9.71688 12.6172C13.2197 12.6172 16.0693 9.79829 16.0693 6.3086C16.0693 2.81891 13.2197 0 9.71688 0Z" fill="white"/>
</svg>
